<svg width="34" height="48" viewBox="0 0 34 48" fill="none" xmlns="http://www.w3.org/2000/svg">
    <path fill-rule="evenodd" clip-rule="evenodd"
          d="M16.4631 47.6831L14.8659 45.4886C10.3447 38.8326 5.72521 33.3312 2.38346 26C1.17944 23.3473 0 19.4677 0 16.4532C0 12.4741 1.44973 9.19437 3.80862 6.13167C5.57778 4.15418 7.02751 2.92427 9.50926 1.71849C14.7922 -0.910129 20.9105 -0.427814 25.9232 2.51431C29.9775 4.87765 32.2381 8.51912 33.565 12.9323C34.769 16.9837 33.2701 22.455 31.5501 26.0482C29.6581 30.0273 28.0118 32.0079 25.702 35.6734C23.4414 39.3149 21.0088 43.0046 18.4288 46.4291C18.0111 47.0078 17.2248 48.6959 16.4631 47.6831Z"
          fill="white"/>
    <circle cx="17" cy="17" r="15" fill="#7385AC"/>
</svg>
