<svg width="29" height="28" viewBox="0 0 29 28" fill="none" xmlns="http://www.w3.org/2000/svg">
    <rect x="0.5" width="28" height="28" rx="4" fill="white"/>
    <path fill-rule="evenodd" clip-rule="evenodd"
          d="M7.35084 25.5004H10.5174V19.7824L18.6018 19.7771L18.6069 25.4951L21.7582 25.5004V11.3924L18.6323 11.3818L18.6069 16.81L10.5225 16.8206L10.5123 11.3871L7.3763 11.3818C7.3152 11.6559 7.3152 24.7995 7.35084 25.5004Z"
          fill="url(#paint0_linear_2966_23887)"/>
    <path fill-rule="evenodd" clip-rule="evenodd"
          d="M18.6172 4.65134C18.7699 4.87795 20.8368 6.50641 21.2594 6.83842C21.4121 6.95963 21.4681 7.09666 21.7481 7.11247V3.08085L18.6172 3.07031V4.65134Z"
          fill="url(#paint1_linear_2966_23887)"/>
    <path fill-rule="evenodd" clip-rule="evenodd"
          d="M21.748 3.08106V7.11267C21.468 7.09686 21.412 6.95984 21.2593 6.83862C20.8368 6.50661 18.7699 4.87815 18.6171 4.65154C18.4237 4.59884 16.0055 2.59094 15.6593 2.29581C15.4098 2.08501 14.9109 1.64232 14.6564 1.50003C14.5698 1.48949 11.2302 4.25628 10.8331 4.56722L4.79527 9.48948C4.67818 9.58434 4.54582 9.64231 4.5 9.77933C4.98873 9.82676 7.47819 9.79514 8.16546 9.78987C8.94947 9.78987 8.79674 9.86892 9.47892 9.27867C9.79965 9.00463 10.1917 8.70951 10.5327 8.446C11.1437 7.96642 14.4833 5.18909 14.6564 5.13639C15.8731 6.03757 17.4869 7.44995 18.7699 8.45127C19.1364 8.74113 19.4317 8.99936 19.788 9.27867C20.4142 9.76879 20.1902 9.80041 21.1422 9.79514C22.2928 9.78987 23.6928 9.86892 24.8077 9.77933C24.7568 9.66339 23.4739 8.65153 23.3008 8.51451L21.7684 7.27604L21.748 3.08106Z"
          fill="url(#paint2_linear_2966_23887)"/>
    <defs>
        <linearGradient id="paint0_linear_2966_23887" x1="9.22794" y1="13.8239" x2="20.16" y2="22.6852"
                        gradientUnits="userSpaceOnUse">
            <stop stop-color="#20AB4E"/>
            <stop offset="1" stop-color="#007356"/>
        </linearGradient>
        <linearGradient id="paint1_linear_2966_23887" x1="18.8654" y1="3.94642" x2="21.5749" y2="6.14268"
                        gradientUnits="userSpaceOnUse">
            <stop stop-color="#20AB4E"/>
            <stop offset="1" stop-color="#129351"/>
        </linearGradient>
        <linearGradient id="paint2_linear_2966_23887" x1="4.5" y1="5.66185" x2="24.807" y2="5.66185"
                        gradientUnits="userSpaceOnUse">
            <stop stop-color="#FAC805"/>
            <stop offset="1" stop-color="#FA9F1A"/>
        </linearGradient>
    </defs>
</svg>

