<svg width="29" height="28" viewBox="0 0 29 28" fill="none" xmlns="http://www.w3.org/2000/svg">
    <path fill-rule="evenodd" clip-rule="evenodd"
          d="M15.1541 15.0074C17.6599 15.3942 17.9986 16.8769 18.2012 18.2569L18.2349 18.4922L18.2579 18.6523L18.3799 19.4644C18.6186 21.015 19.1167 24.2336 19.1167 25.9131C19.1167 26.3329 19.0798 26.655 19.0123 26.8321C18.8999 27.1049 18.5722 27.3667 18.1199 27.5849C17.0253 27.8543 15.8813 28 14.7028 28C14.578 28 14.4553 27.994 14.3321 27.9903C13.8558 27.855 13.4979 27.6292 13.3083 27.3206C12.7361 26.389 12.7016 24.3136 12.6901 21.8883L12.6888 21.607L12.6842 20.88C12.6656 18.3125 12.6495 16.0988 13.5824 15.3044C13.9437 14.9988 14.457 14.8977 15.1541 15.0074ZM9.69074 20.5973C10.2338 20.5668 10.583 23.2377 10.6531 25.2631C10.7023 26.6732 10.5543 27.2532 10.3179 27.4614C10.0502 27.3721 9.78716 27.2754 9.52799 27.1704C9.35509 26.8562 9.22294 26.362 9.13898 25.7147C8.88266 23.6804 9.10532 20.6332 9.69074 20.5973ZM23.3044 24.5887C23.2706 24.7742 23.2228 24.9176 23.1639 25.0385C22.6996 25.4111 22.2116 25.7531 21.701 26.0608C21.5383 26.0882 21.3939 26.0691 21.3232 25.9498C20.6464 24.7606 20.3924 21.0299 21.0474 20.7052C21.9013 20.2927 23.431 23.9438 23.3044 24.5887ZM14.5007 0C22.1252 0 28.3255 6.03804 28.4965 13.5514L28.5 13.8111V13.9311C28.486 17.325 27.237 20.43 25.1794 22.8333C25.1047 22.7958 24.9686 22.6733 24.7219 22.3043C24.4667 21.9334 22.2655 18.5459 22.2655 14.6633C22.2655 13.9014 23.3638 12.7111 24.3357 11.6664C25.0622 10.8802 25.7504 10.1386 26.0038 9.55579C26.3266 8.80373 26.1007 8.27859 25.7436 8.10059C25.4203 7.9424 24.9349 8.05779 24.5943 8.66276C24.0353 9.64189 23.8562 9.82485 23.0409 10.48C22.2386 11.1347 20.9631 11.7939 20.9631 10.9406C20.9631 10.48 21.6735 9.43661 22.0245 8.70529C22.3829 7.9658 21.9966 7.43046 21.2565 7.43046C19.8032 7.43046 18.8385 9.28174 18.8385 9.92311C18.8385 10.564 19.1494 10.6552 19.1494 11.4015C19.1494 12.1534 17.5549 13.1287 16.0529 13.1287C14.6068 13.1287 13.7682 12.836 13.4207 12.0114L13.3763 11.8956L13.2759 11.5985C12.9196 10.5571 12.664 9.80193 12.219 9.01268C11.9828 8.5953 11.6183 8.30595 11.303 8.05136C10.891 7.73132 10.6772 7.43663 10.6326 7.21686C10.5915 6.99882 10.5693 6.58791 11.2737 5.64069C11.9766 4.69887 12.0751 3.98738 11.7234 3.62025C11.5959 3.48965 11.3785 3.40597 11.0994 3.40597C10.6057 3.40597 9.91973 3.66755 9.21277 4.38607C8.11381 5.51215 8.7377 6.5813 8.7377 7.05065C8.7377 7.51968 8.53637 7.78499 7.87687 8.4231C7.21254 9.06404 6.98327 9.61354 6.90729 11.822C6.87818 12.96 6.67777 13.615 6.49787 14.1958C6.34242 14.7049 6.19945 15.1835 6.19173 15.875C6.17941 16.6414 6.30697 17.1352 6.45583 17.705C6.60198 18.2317 6.7572 18.8352 6.85666 19.8447C7.01484 21.4073 6.95985 22.7273 6.67225 24.0765L6.5955 24.4145L6.57756 24.5116C6.51866 24.7488 6.44865 25.0367 6.35402 25.1446C2.81066 22.6278 0.5 18.5176 0.5 13.8715C0.5 6.21113 6.76806 0 14.5007 0Z"
          fill="white"/>
</svg>
