<svg width="68" height="18" viewBox="0 0 68 18" fill="none" xmlns="http://www.w3.org/2000/svg">
    <path d="M0 17.5L0.0240751 17.1605L1.27598 16.9907C1.38833 16.9746 1.48463 16.8695 1.56488 16.6755L6.76509 0.5H8.35405L13.8913 17.015L15.5525 17.112C15.5525 17.1281 15.5445 17.2494 15.5284 17.4757L10.7134 17.5C10.7134 17.3545 10.7214 17.2413 10.7375 17.1605L11.9894 16.9907C12.1178 16.9746 12.182 16.8776 12.182 16.6997L10.8579 12.7468H3.34643L2.07046 16.9665L4.86316 17.112C4.86316 17.1281 4.85514 17.2494 4.83909 17.4757L0 17.5ZM6.93362 0.96077L3.49089 12.2618H10.6893L6.93362 0.96077Z"
          fill="white"/>
    <path d="M21.0367 17.5L21.0608 17.1605L22.3127 16.9907C22.4732 16.9746 22.5695 16.8695 22.6016 16.6755H22.6257V1.34879H22.6016C22.5695 1.13861 22.4732 1.02544 22.3127 1.00927L21.0608 0.888018L21.0367 0.524251L25.8758 0.5C25.8758 0.516167 25.8838 0.637422 25.8999 0.863766L24.2628 1.00927V17.015L25.8999 17.112C25.8999 17.1281 25.8918 17.2494 25.8758 17.4757L21.0367 17.5Z"
          fill="white"/>
    <path d="M32.2704 0.863766L32.2944 0.5H35.5927L44.9579 16.7967L44.8375 1.34879C44.7733 1.18711 44.6851 1.09819 44.5727 1.08203L42.3578 0.888018C42.3418 0.791013 42.3337 0.669757 42.3337 0.524251L46.908 0.5C46.908 0.516167 46.916 0.637422 46.9321 0.863766L45.3913 1.03352V17.4757H43.6338L34.2686 1.17903L34.389 16.9665L37.1335 17.112C37.1335 17.1281 37.1255 17.2494 37.1094 17.4757L32.2704 17.5L32.2944 17.1605L33.5463 16.9907C33.7068 16.9746 33.8031 16.8695 33.8352 16.6755V1.32454C33.8031 1.13053 33.7068 1.02544 33.5463 1.00927L32.2704 0.863766Z"
          fill="white"/>
    <path d="M52.4475 17.5L52.4716 17.1605L53.7235 16.9907C53.8358 16.9746 53.9321 16.8695 54.0124 16.6755L59.2126 0.5H60.8016L66.3388 17.015L68 17.112C68 17.1281 67.992 17.2494 67.9759 17.4757L63.1609 17.5C63.1609 17.3545 63.1689 17.2413 63.185 17.1605L64.4369 16.9907C64.5653 16.9746 64.6295 16.8776 64.6295 16.6997L63.3054 12.7468H55.7939L54.518 16.9665L57.3107 17.112C57.3107 17.1281 57.3026 17.2494 57.2866 17.4757L52.4475 17.5ZM59.3811 0.96077L55.9384 12.2618H63.1368L59.3811 0.96077Z"
          fill="white"/>
</svg>
