<svg
        width="29"
        height="28"
        viewBox="0 0 29 28"
        fill="none"
        xmlns="http://www.w3.org/2000/svg"
>
    <path
            fill-rule="evenodd"
            clip-rule="evenodd"
            d="M14.8102 23.9935L14.7439 23.9965C14.6626 23.9995 14.5813 23.9995 14.5 23.9995C14.4187 23.9995 14.3374 23.9995 14.2531 23.9965L14.1898 23.9935C14.1673 23.9935 14.1439 23.9928 14.1206 23.992C14.0973 23.9913 14.0739 23.9905 14.0513 23.9905C8.45956 23.7675 4 19.3781 4 13.9985C4 8.47613 8.70046 4.00053 14.5 4.00053C20.2995 4.00053 25 8.47613 25 13.9985C25 19.3781 20.5374 23.7675 14.9457 23.9905C14.9231 23.9905 14.9005 23.9913 14.8779 23.992C14.8553 23.9928 14.8327 23.9935 14.8102 23.9935ZM21.1281 20.1657L21.1306 20.1692C22.4375 18.5098 23.2264 16.3538 23.2264 13.9985C23.2264 8.75864 19.3209 4.50906 14.5 4.50906C9.67909 4.50906 5.77058 8.75864 5.77058 13.9985C5.77058 16.3538 6.55951 18.5098 7.86636 20.1692C7.86441 20.1719 7.8683 20.1665 7.86636 20.1692C9.23081 21.9043 11.1667 23.0894 13.3518 23.4026C13.6106 23.4425 13.8731 23.4692 14.1387 23.482C14.1556 23.482 14.1718 23.4828 14.1876 23.4836C14.2026 23.4843 14.2173 23.485 14.232 23.485L14.2892 23.488C14.3235 23.488 14.3577 23.4887 14.3924 23.4894C14.4277 23.4902 14.4635 23.4909 14.5 23.4909C14.5693 23.4909 14.6385 23.4909 14.7108 23.488L14.768 23.485L14.8583 23.482C15.0985 23.4705 15.336 23.4476 15.5705 23.4139C17.7872 23.1193 19.7469 21.9199 21.1281 20.1657Z"
            fill="currentColor"
    />
    <path
            d="M7.64526 7.12042L7.67143 7H13.6616C15.8054 7 17.628 7.44498 18.6563 8.08406C19.7021 8.72315 20.6081 10.0293 20.6081 11.8097C20.6081 13.5748 19.8848 14.6557 18.8042 15.5078C17.741 16.3447 15.7357 16.7689 13.6616 16.7689H11.6485V23.241C11.6485 23.4 11.5903 23.2438 11.5729 23.4568L10.2188 22.8477C10.1562 22.7891 10.1133 22.7852 9.98844 22.6836L9.94922 22.5938C9.94922 22.5435 9.91872 22.567 9.98844 22.4453V8C9.98844 7.63281 9.70745 7.54256 9.58545 7.52734L7.67141 7.18889C7.65398 7.17368 7.64526 7.15085 7.64526 7.12042ZM13.5309 7.34237H11.6485V16.4265H13.5309C15.0995 16.4265 16.704 16.0556 17.4709 15.3253C18.2552 14.5949 18.8303 13.6052 18.8303 11.901C18.8303 10.1815 18.0708 8.9421 17.3039 8.36387C16.537 7.77044 15.117 7.34237 13.5309 7.34237Z"
            fill="currentColor"
    />
</svg>
