<svg width="18" height="18" viewBox="0 0 18 18" fill="none" xmlns="http://www.w3.org/2000/svg">
    <path d="M9.5556 13.8027L11.331 12.0273C11.6737 11.6846 12.2127 11.6369 12.6102 11.9142L14.9583 13.5518C15.4159 13.871 15.4738 14.5262 15.0794 14.9206V14.9206C14.4428 15.5572 13.5287 15.8336 12.6757 15.5459C11.0902 15.0112 8.4243 13.8552 6.19631 11.6272C3.96833 9.39924 2.81234 6.73338 2.27762 5.14787C1.98994 4.29486 2.26635 3.38072 2.90289 2.74418V2.74418C3.29738 2.34969 3.95255 2.40763 4.27169 2.86522L5.90939 5.21334C6.1866 5.61081 6.13894 6.14985 5.79628 6.4925L4.02085 8.26793"
          stroke="currentColor" stroke-linecap="round"/>
</svg>
