<svg width="29" height="28" viewBox="0 0 29 28" fill="none" xmlns="http://www.w3.org/2000/svg">
<path fill-rule="evenodd" stroke="currentColor" stroke-width="0.5" clip-rule="evenodd" d="M14.7439 23.9964L14.8102 23.9935C14.8553 23.9935 14.9005 23.9905 14.9457 23.9905C20.5374 23.7675 25 19.3781 25 13.9985C25 8.47608 20.2995 4.00049 14.5 4.00049C8.70046 4.00049 4 8.47608 4 13.9985C4 19.3781 8.45956 23.7675 14.0513 23.9905C14.0965 23.9905 14.1447 23.9935 14.1898 23.9935L14.2531 23.9964C14.3374 23.9994 14.4187 23.9994 14.5 23.9994C14.5813 23.9994 14.6626 23.9994 14.7439 23.9964ZM21.1306 20.1691C19.6582 18.135 17.2372 16.8117 14.5 16.8117C11.7598 16.8117 9.33883 18.135 7.86636 20.1691C6.55951 18.5097 5.77058 16.3537 5.77058 13.9985C5.77058 8.7586 9.67909 4.50901 14.5 4.50901C19.3209 4.50901 23.2264 8.7586 23.2264 13.9985C23.2264 16.3537 22.4375 18.5097 21.1306 20.1691ZM9.23043 21.4003C10.1398 18.9023 12.1573 17.1656 14.5 17.1656C16.8427 17.1656 18.8572 18.9023 19.7666 21.4003C18.4115 22.6285 16.7132 23.3928 14.8583 23.482L14.768 23.4849L14.7108 23.4879C14.6385 23.4909 14.5693 23.4909 14.5 23.4909C14.4277 23.4909 14.3585 23.4879 14.2892 23.4879L14.232 23.4849C14.2019 23.4849 14.1718 23.482 14.1387 23.482C12.2868 23.3928 10.5855 22.6285 9.23043 21.4003ZM14.5 9.04408C16.4814 9.04408 18.0893 10.525 18.0893 12.348C18.0893 14.1739 16.4814 15.6549 14.5 15.6549C12.5156 15.6549 10.9077 14.1739 10.9077 12.348C10.9077 10.525 12.5156 9.04408 14.5 9.04408ZM14.5 9.38905C13.2323 9.38905 12.2055 10.7154 12.2055 12.348C12.2055 13.9836 13.2323 15.3069 14.5 15.3069C15.7677 15.3069 16.7945 13.9836 16.7945 12.348C16.7945 10.7154 15.7677 9.38905 14.5 9.38905Z" fill="#7A7A7A"/>
</svg>
