<svg width="29" height="28" viewBox="0 0 29 28" fill="none" xmlns="http://www.w3.org/2000/svg">
<path d="M8.30833 22.8085C8.2886 22.8361 8.25734 22.8523 8.2241 22.8523H6.26068C6.16755 22.8523 6.12082 22.7363 6.18657 22.6683L23.0304 5.24168C23.0962 5.17366 23.0495 5.05762 22.9563 5.05762H21.0491C21.0158 5.05762 20.9846 5.07391 20.9648 5.1015L8.30833 22.8085ZM9.5718 13.8653C7.18003 13.8653 5.26855 11.9172 5.26855 9.43273C5.26855 6.98735 7.08778 5.14453 9.50117 5.06425C11.8549 4.98596 13.8068 7.0354 13.8068 9.5526C13.8068 11.9949 11.9983 13.8653 9.5718 13.8653ZM9.5718 13.4402C11.2717 13.4402 12.0131 11.196 12.0131 9.43273C12.0131 7.94174 11.3382 5.53622 9.50117 5.53622C7.61274 5.53622 7.12207 8.24898 7.12207 9.43273C7.12207 10.9864 7.87193 13.4402 9.5718 13.4402Z" fill="#7A7A7A"/>
<path d="M19.7203 14.0446C22.1121 14.0446 24.0236 15.9928 24.0236 18.4772C24.0236 20.9226 22.2043 22.7654 19.7909 22.8457C17.4372 22.924 15.4853 20.8746 15.4853 18.3573C15.4853 15.915 17.2938 14.0446 19.7203 14.0446ZM19.7203 14.4697C18.0204 14.4697 17.2791 16.7139 17.2791 18.4772C17.2791 19.9682 17.9539 22.3737 19.7909 22.3737C21.6794 22.3737 22.17 19.661 22.17 18.4772C22.17 16.9236 21.4202 14.4697 19.7203 14.4697Z" fill="#7A7A7A"/>
<path fill-rule="evenodd" clip-rule="evenodd" d="M17.3159 10.869L12.8868 16.177L12.7333 16.0489L17.1624 10.7409L17.3159 10.869Z" fill="#7A7A7A"/>
</svg>
