<svg width="57" height="50" viewBox="0 0 57 50" fill="none" xmlns="http://www.w3.org/2000/svg">
    <path d="M28.7539 12.0139C19.2417 12.0139 11.5039 19.7517 11.5039 29.2639C11.5039 38.7762 19.2417 46.5139 28.7539 46.5139C38.2662 46.5139 46.0039 38.7762 46.0039 29.2639C46.0039 25.8439 44.9991 22.6559 43.2764 19.9724L42.2495 21.1853C43.6708 23.5508 44.5039 26.3089 44.5039 29.2639C44.5039 37.9482 37.4382 45.0139 28.7539 45.0139C20.0697 45.0139 13.0039 37.9482 13.0039 29.2639C13.0039 20.5797 20.0697 13.5139 28.7539 13.5139C32.8362 13.5139 36.5493 15.0887 39.3506 17.6462L40.332 16.4875C37.2683 13.7088 33.2052 12.0139 28.7539 12.0139ZM42.4312 16.3293L27.9395 33.4299L21.8398 27.7405L20.8174 28.8376L28.0669 35.5994L43.5767 17.2991L42.4312 16.3293Z"
          fill="url(#paint0_linear_4469_11067)"/>
    <path d="M46.346 6.24067C45.56 6.65391 43.6182 6.83757 43.6182 6.83757V7.57223C43.6182 7.57223 45.56 7.7559 46.346 8.16914C47.0858 8.58238 47.7331 9.13338 48.1955 9.86803C48.704 10.6027 49.0277 11.4292 49.2589 12.3934C49.49 13.3576 49.5825 14.1887 49.5825 14.1887H50.2298C50.2298 14.1887 50.458 12.8706 50.5535 12.3934C50.7846 11.4292 51.1545 10.6027 51.6169 9.86803C52.0792 9.13338 52.6803 8.58238 53.4663 8.16914C54.2523 7.7559 56.1942 7.57223 56.1942 7.57223V6.83757C56.1942 6.83757 54.2523 6.65391 53.4663 6.24067C52.7265 5.82742 52.0792 5.27643 51.6169 4.54178C51.1083 3.80712 50.7846 2.98064 50.5535 2.01641C50.4474 1.44805 50.2298 0 50.2298 0H49.5825C49.5825 0 49.3676 1.64918 49.2589 2.01641C49.0277 2.98064 48.6578 3.80712 48.1955 4.54178C47.7331 5.27643 47.132 5.82742 46.346 6.24067Z"
          fill="#B09D35"/>
    <path d="M3.61839 16.7195C3.15208 16.9647 2 17.0737 2 17.0737V17.5095C2 17.5095 3.15208 17.6185 3.61839 17.8637C4.05728 18.1088 4.44131 18.4357 4.71561 18.8716C5.01734 19.3074 5.20936 19.7978 5.34651 20.3698C5.48366 20.9419 5.53852 21.435 5.53852 21.435H5.92255C5.92255 21.435 6.05792 20.6529 6.11456 20.3698C6.25171 19.7978 6.47116 19.3074 6.74546 18.8716C7.01976 18.4357 7.37636 18.1088 7.84268 17.8637C8.309 17.6185 9.46107 17.5095 9.46107 17.5095V17.0737C9.46107 17.0737 8.309 16.9647 7.84268 16.7195C7.40379 16.4744 7.01976 16.1475 6.74546 15.7116C6.44372 15.2758 6.25171 14.7854 6.11456 14.2134C6.05164 13.8762 5.92255 13.0171 5.92255 13.0171H5.53852C5.53852 13.0171 5.41102 13.9955 5.34651 14.2134C5.20936 14.7854 4.98991 15.2758 4.71561 15.7116C4.44131 16.1475 4.08471 16.4744 3.61839 16.7195Z"
          fill="#B09D35"/>
    <defs>
        <linearGradient id="paint0_linear_4469_11067" x1="28.7539" y1="12.0139" x2="28.7539" y2="46.5139"
                        gradientUnits="userSpaceOnUse">
            <stop stop-color="#CCBB61"/>
            <stop offset="0.5" stop-color="#D9D2AB"/>
            <stop offset="1" stop-color="#B9AA58"/>
        </linearGradient>
    </defs>
</svg>
