<svg width="29" height="28" viewBox="0 0 29 28" fill="none" xmlns="http://www.w3.org/2000/svg">
    <path fill-rule="evenodd" clip-rule="evenodd"
          d="M23.4149 22.8355H6.00626C5.85842 22.8355 5.71057 22.6871 5.71057 22.5386V11.7386C5.71057 11.6644 5.74753 11.5901 5.82145 11.5159L12.7295 5.63922C13.3802 5.11206 13.3039 5.00146 13.9073 5.00146C14.1661 5.00146 14.6128 5.00147 14.8345 5.00147H15.5257C16.1893 5.00147 16.0125 5.01947 16.9856 5.80424L23.5997 11.5159C23.6736 11.5901 23.7106 11.6644 23.7106 11.7386V22.5386C23.7106 22.6871 23.5997 22.8355 23.4149 22.8355ZM7.26293 11.5159V22.3159H22.1582V11.5159L15.5977 5.80424C15.2687 5.51335 15.2452 5.51335 14.7154 5.51335C14.1856 5.51335 14.2106 5.55216 13.9073 5.80424L7.26293 11.5159Z"
          fill="currentColor"/>
</svg>
