<svg width="24" height="24" viewBox="0 0 24 24" fill="none" xmlns="http://www.w3.org/2000/svg">
    <path fill-rule="evenodd" clip-rule="evenodd"
          d="M6.40988 21.3023C6.34034 21.2618 6.25744 21.2509 6.17979 21.2721L1.94476 22.4276C1.72087 22.4887 1.51538 22.2833 1.57632 22.0594L2.72937 17.8224C2.7505 17.7448 2.73957 17.662 2.69903 17.5925L2.62124 17.4592C1.65494 15.8027 1.14725 13.9176 1.15041 11.9999C1.15041 6.00743 6.00794 1.1499 12.0004 1.1499C17.9929 1.1499 22.8504 6.00743 22.8504 11.9999C22.8504 17.9923 17.9918 22.8499 11.9993 22.8499C10.0824 22.853 8.19928 22.3457 6.54333 21.3801L6.40988 21.3023ZM3.76907 17.6848C3.79016 17.6072 3.77925 17.5244 3.73877 17.455L3.45717 16.9718C2.58311 15.4747 2.11742 13.7723 2.11742 11.9999C2.11742 10.0452 2.69705 8.13445 3.783 6.50921C4.86896 4.88396 6.41247 3.61723 8.21835 2.86921C10.0242 2.1212 12.0114 1.92548 13.9285 2.30682C15.8456 2.68815 17.6066 3.62942 18.9887 5.01157C20.3709 6.39373 21.3121 8.15471 21.6935 10.0718C22.0748 11.9889 21.8791 13.9761 21.1311 15.7819C20.3831 17.5878 19.1163 19.1313 17.4911 20.2173C15.8659 21.3032 13.9861 21.8828 12.0316 21.8828C9.96388 21.8828 8.55273 21.5138 6.55036 20.269C6.47891 20.2246 6.39162 20.2111 6.31045 20.2333L3.32277 21.0487C3.0989 21.1098 2.8934 20.9045 2.9543 20.6805L3.76907 17.6848Z"
          fill="#333333"/>
    <path d="M8.21323 7.05114C8.06556 7.04453 7.91679 7.04453 7.76912 7.05555L7.76802 7.05445C7.62571 7.06329 7.48665 7.10077 7.35918 7.16465C7.26331 7.21314 7.17515 7.28367 7.03519 7.4159C6.92437 7.52114 6.85289 7.61458 6.78485 7.70352C6.77239 7.71982 6.76003 7.73597 6.74757 7.75201C6.34022 8.28281 6.1215 8.93429 6.12605 9.60337C6.13637 10.1427 6.26068 10.6737 6.49081 11.1616C6.94042 12.1556 7.68097 13.208 8.66174 14.1833C8.69898 14.2203 8.73607 14.2574 8.77312 14.2945C8.97076 14.4921 9.16721 14.6885 9.37694 14.8731C10.5929 15.9437 12.0419 16.7157 13.6086 17.1278C13.6086 17.1278 14.2257 17.2237 14.2346 17.2237C14.4103 17.2331 14.5852 17.2231 14.7601 17.2132C14.7891 17.2115 14.8182 17.2098 14.8473 17.2083C15.1681 17.192 15.4815 17.1055 15.7652 16.9548C15.9094 16.8802 16.0502 16.7993 16.1873 16.7124C16.2339 16.6803 16.2798 16.6472 16.325 16.6132C16.4558 16.5188 16.5775 16.4126 16.6887 16.2958C16.7831 16.1979 16.8613 16.0856 16.9201 15.963C17.0061 15.7834 17.092 15.4407 17.1273 15.1552C17.1526 14.937 17.146 14.818 17.1416 14.7442C17.1383 14.6263 17.0402 14.504 16.9322 14.4522L16.2909 14.1645C16.2909 14.1645 15.3332 13.7469 14.7481 13.4791C14.6864 13.4515 14.6191 13.4394 14.553 13.435C14.4776 13.4273 14.4014 13.4358 14.3296 13.4599C14.2577 13.484 14.1919 13.5233 14.1365 13.575V13.5728C14.1299 13.5728 14.0571 13.6356 13.2593 14.602C13.2136 14.6633 13.1508 14.7096 13.0788 14.7351C13.0068 14.7606 12.9289 14.7641 12.8548 14.7453C12.7832 14.7266 12.7127 14.7012 12.6444 14.6726C12.5567 14.6351 12.5058 14.6126 12.4558 14.5905C12.4279 14.5782 12.4002 14.566 12.3667 14.5513L12.3612 14.5491C11.7308 14.2736 11.1468 13.9023 10.631 13.4471C10.5284 13.3567 10.4312 13.2615 10.3341 13.1664C10.2998 13.1328 10.2655 13.0992 10.231 13.0659C9.76815 12.6162 9.38906 12.1391 9.10695 11.6685L9.04193 11.5638C8.99565 11.4889 8.94496 11.3996 8.92953 11.3379C8.88765 11.1759 8.99675 11.0459 8.99675 11.0459C8.99675 11.0459 9.26454 10.7528 9.38906 10.593C9.49272 10.4614 9.58946 10.3246 9.67889 10.183C9.80892 9.97364 9.8497 9.75875 9.78137 9.59125C9.47281 8.83858 9.15324 8.08812 8.82484 7.34317C8.75982 7.19551 8.56697 7.08861 8.39175 7.06878C8.33225 7.06216 8.27274 7.05555 8.21323 7.05114Z"
          stroke="#333333"/>
</svg>
