<svg width="375" height="716" viewBox="0 0 375 716" fill="none" xmlns="http://www.w3.org/2000/svg">
    <path fill-rule="evenodd" clip-rule="evenodd"
          d="M68.9858 543.716V410.351V407.065H72.1445H97.6668V144.885V141.725H100.952H147.321C152.502 130.853 159.198 122.131 169.18 115.431C179.035 108.731 190.911 105.065 203.546 105.065C220.603 105.065 236.018 112.018 247.136 123.142C258.255 134.267 265.204 149.689 265.204 166.755C265.204 171.558 264.572 176.362 263.561 180.913C262.424 185.337 260.908 189.635 259.013 193.68V496.565V497.955L258.002 498.84L233.112 523.743L232.227 524.628H230.837H193.312V535.752V539.039H190.027H172.465V543.716V547.003H169.306H72.1445H68.9858V543.716ZM72.1445 543.716V410.351H100.952V144.885H149.469C153.639 134.393 159.83 126.176 168.548 119.603C177.519 112.776 189.269 107.846 203.799 107.973C210.622 107.973 219.087 109.363 227.047 113.029C235.259 116.569 242.84 122.51 248.4 128.831C260.15 142.104 262.424 160.687 262.172 166.502C261.792 177.752 259.771 185.084 255.728 192.922V496.565L230.837 521.468H190.027V535.752H169.306V543.716H72.1445Z"
          fill="#AFAEAE"/>
    <path d="M199.616 313.421C199.616 311.05 197.695 309.127 195.325 309.127C192.955 309.127 191.034 311.05 191.034 313.421C191.034 315.792 192.955 317.714 195.325 317.714C197.695 317.714 199.616 315.792 199.616 313.421Z"
          fill="#7385AC"/>
    <path d="M199.616 337.705C199.616 335.334 197.695 333.412 195.325 333.412C192.955 333.412 191.034 335.334 191.034 337.705C191.034 340.077 192.955 341.999 195.325 341.999C197.695 341.999 199.616 340.077 199.616 337.705Z"
          fill="#7385AC"/>
    <path d="M192.596 359.268L192.596 364.73L198.054 364.73L198.054 359.268L192.596 359.268Z" fill="#7385AC"/>
    <path d="M199.616 373.324C199.616 370.952 197.695 369.03 195.325 369.03C192.955 369.03 191.034 370.952 191.034 373.324C191.034 375.695 192.955 377.617 195.325 377.617C197.695 377.617 199.616 375.695 199.616 373.324Z"
          fill="#7385AC"/>
    <path d="M167.284 478.993H152.249V498.461H167.284V478.993Z" fill="#7385AC"/>
    <path d="M167.411 458.767H132.286V478.235H167.411V458.767Z" fill="#7385AC"/>
    <path fill-rule="evenodd" clip-rule="evenodd"
          d="M74.166 541.694V480.131V412.374H103.1V396.193H151.491V436.898H167.284V458.008H131.528V478.993H151.491V499.219H167.284V541.694H74.166Z"
          fill="#7385AC"/>
    <path d="M167.284 416.545H152.249V436.013H167.284V416.545Z" fill="#7385AC"/>
    <path d="M167.284 396.193H152.249V415.66H167.284V396.193Z" fill="#7385AC"/>
    <path d="M167.284 375.84H152.249V395.308H167.284V375.84Z" fill="#7385AC"/>
    <path fill-rule="evenodd" clip-rule="evenodd" d="M119.398 358.269V395.308H151.491V375.082H167.284V358.269H119.398Z"
          fill="#7385AC"/>
    <path d="M138.376 339.744L138.376 357.448L167.303 357.448L167.303 339.744L138.376 339.744Z" fill="#7385AC"/>
    <path d="M138.376 320.879L138.376 338.929L167.303 338.929L167.303 320.879L138.376 320.879Z" fill="#7385AC"/>
    <path fill-rule="evenodd" clip-rule="evenodd" d="M119.398 297.844V315.668H137.593V297.844H119.398Z" fill="#7385AC"/>
    <path d="M138.376 297.821L138.376 315.671L167.303 315.671L167.303 297.821L138.376 297.821Z" fill="#7385AC"/>
    <path d="M138.376 278.891L138.376 297.149L167.303 297.149L167.303 278.891L138.376 278.891Z" fill="#7385AC"/>
    <path fill-rule="evenodd" clip-rule="evenodd" d="M138.351 260.173V278.124H167.284V260.173H138.351Z" fill="#7385AC"/>
    <path fill-rule="evenodd" clip-rule="evenodd" d="M138.351 243.74V259.415H167.284V243.74H138.351Z" fill="#7385AC"/>
    <path fill-rule="evenodd" clip-rule="evenodd" d="M119.398 243.74V259.415H133.17V243.74H119.398Z" fill="#7385AC"/>
    <path fill-rule="evenodd" clip-rule="evenodd" d="M119.398 213.906V233.88H137.593V213.906H119.398Z" fill="#7385AC"/>
    <path fill-rule="evenodd" clip-rule="evenodd" d="M168.042 223.893V238.417H189.269V223.893H168.042Z" fill="#7385AC"/>
    <path fill-rule="evenodd" clip-rule="evenodd" d="M253.58 262.575V223.893H190.153V239.568L213.654 262.575H253.58Z"
          fill="#7385AC"/>
    <path fill-rule="evenodd" clip-rule="evenodd" d="M253.58 281.916V263.333H214.791V281.916H253.58Z" fill="#7385AC"/>
    <path d="M214.75 294.82L214.75 282.698L253.675 282.698L253.675 294.82L214.75 294.82Z" fill="#7385AC"/>
    <path d="M214.75 318.301L214.75 300.673L253.675 300.673L253.675 318.301L214.75 318.301Z" fill="#7385AC"/>
    <path d="M214.75 342.953L214.75 324.157L253.675 324.157L253.675 342.953L214.75 342.953Z" fill="#7385AC"/>
    <path d="M214.75 362.515L214.75 343.719L253.675 343.719L253.675 362.515L214.75 362.515Z" fill="#7385AC"/>
    <path d="M214.75 382.079L214.75 363.283L253.675 363.283L253.675 382.079L214.75 382.079Z" fill="#7385AC"/>
    <path d="M214.75 401.641L214.75 382.845L253.675 382.845L253.675 401.641L214.75 401.641Z" fill="#7385AC"/>
    <path d="M214.75 402.421L214.75 431.614L253.675 431.614L253.675 402.421L214.75 402.421Z" fill="#7385AC"/>
    <path d="M214.75 451.167L214.75 432.371L253.675 432.371L253.675 451.167L214.75 451.167Z" fill="#7385AC"/>
    <path d="M227.805 457.25H214.791V472.673H227.805V457.25Z" fill="#7385AC"/>
    <path d="M227.805 473.431H214.791V488.853H227.805V473.431Z" fill="#7385AC"/>
    <path fill-rule="evenodd" clip-rule="evenodd" d="M214.791 519.192V489.612H253.58V496.311L230.079 519.192H214.791Z"
          fill="#7385AC"/>
    <path d="M214.75 295.583L214.75 299.916L253.582 299.916L253.582 295.583L214.75 295.583Z" fill="#404040"/>
    <path d="M214.75 319.067L214.75 323.399L253.582 323.399L253.582 319.067L214.75 319.067Z" fill="#404040"/>
    <path fill-rule="evenodd" clip-rule="evenodd" d="M253.58 451.941V488.853H228.437V456.618H214.791V451.941H253.58Z"
          fill="#404040"/>
    <path d="M187.879 499.219H168.042V533.603H187.879V499.219Z" fill="#404040"/>
    <path fill-rule="evenodd" clip-rule="evenodd"
          d="M118.514 320.978V297.212H133.802H137.593V260.173C132.412 260.173 127.232 260.173 118.514 260.173V213.148H138.351V238.43H167.284V223.134C196.344 223.134 223.509 223.134 253.58 223.134V192.543L257.876 183.947L259.265 175.224L260.655 166.375L259.265 157.653L257.876 148.804L253.832 140.84L249.789 133.002L243.598 126.682L237.281 120.361L229.321 116.316L221.361 112.271L212.643 110.88L203.799 109.49L195.081 110.88L186.236 112.271L178.403 116.316L170.443 120.361L164.126 126.682L157.808 133.002L153.765 140.84L150.606 147.034H103.1V207.839V213.148V260.173V293.799V295.822V358.269V395.308H118.514V357.384H137.593V320.851L118.514 320.978Z"
          fill="#404040"/>
    <path d="M180.93 529.052C181.056 529.052 181.183 529.179 181.183 529.305C181.183 529.432 181.056 529.558 180.93 529.558H179.287H179.035V529.305V527.915H177.645H177.392V527.662V526.271H176.129H175.876V526.018V524.375C175.876 524.249 176.002 524.122 176.129 524.122C176.255 524.122 176.381 524.249 176.381 524.375V525.766H177.645H177.898V526.018V527.409H179.287H179.54V527.662V529.052H180.93Z"
          fill="white"/>
    <path fill-rule="evenodd" clip-rule="evenodd"
          d="M191.42 352.602C191.42 352.798 191.42 352.896 191.616 353.092C191.714 353.092 191.812 353.19 192.008 353.19H193.184C193.282 353.19 193.478 352.994 193.478 352.994L196.614 349.857C196.712 349.759 196.81 349.661 196.908 349.661H197.594C197.79 349.661 197.986 349.465 198.084 349.366C198.084 349.268 198.182 349.17 198.182 349.072V348.974C198.084 348.68 197.888 348.484 197.594 348.484H196.32C196.32 348.484 196.124 348.68 196.026 348.68L192.792 352.014C192.792 352.014 192.694 352.014 192.596 352.014C192.204 352.014 191.812 351.916 191.616 352.21C191.518 352.21 191.42 352.406 191.42 352.602ZM196.124 351.131C196.124 351.327 196.32 351.327 196.516 351.327L195.242 352.602C195.242 352.602 195.046 352.7 195.046 352.896C195.046 352.994 195.144 353.092 195.242 353.092C195.438 353.092 195.438 352.896 195.536 352.896L196.712 351.621C196.712 352.112 197.202 352.014 197.202 351.719V351.131C197.202 351.033 197.104 350.935 196.908 350.935H196.418C196.222 350.935 196.124 351.033 196.124 351.131ZM193.772 348.092C193.772 348.386 193.87 348.582 194.066 348.778C193.968 348.876 193.772 348.876 193.772 349.465C193.772 349.759 193.772 350.151 193.772 350.445L195.046 349.17C195.046 349.072 194.948 348.876 194.85 348.876L194.752 348.778C194.85 348.68 195.046 348.386 195.046 348.19C195.046 347.994 195.046 347.896 194.85 347.7C194.458 347.21 193.772 347.602 193.772 348.092Z"
          fill="white"/>
    <path fill-rule="evenodd" clip-rule="evenodd"
          d="M129.506 308.589C129.506 308.716 129.885 308.716 130.138 308.716H131.528C131.781 308.716 132.033 308.716 132.033 308.463L131.149 306.061C131.023 305.808 130.896 305.303 130.77 305.429C130.644 305.429 130.517 305.808 130.517 305.935C130.391 306.314 129.506 308.463 129.506 308.589ZM130.012 304.544C130.012 304.797 130.138 304.923 130.391 305.05C130.77 305.303 131.149 305.176 131.402 304.923C131.781 304.291 131.275 303.659 130.644 303.659C130.264 303.659 130.012 304.038 130.012 304.544ZM126.095 303.659C125.716 303.786 125.463 304.165 125.59 304.544C125.59 304.797 125.716 304.923 125.842 305.05C126.6 305.555 127.358 304.671 126.853 304.038C126.727 303.786 126.474 303.659 126.095 303.659ZM128.496 310.233H128.622C128.748 310.106 128.748 310.106 128.748 309.853V302.901C128.748 302.648 128.748 302.648 128.622 302.522H128.496C128.369 302.648 128.369 302.648 128.369 302.774V309.853C128.369 310.106 128.369 310.106 128.496 310.233ZM127.232 306.44C127.232 306.314 127.358 306.314 127.358 306.187C127.611 305.429 127.738 305.429 127.106 305.429H125.59C125.463 305.429 125.084 305.303 125.084 305.555C124.958 305.682 125.211 305.935 125.211 306.061L125.842 307.704C125.842 307.957 126.095 308.463 126.221 308.716C126.474 308.716 126.474 308.463 126.6 308.337L127.232 306.567C127.232 306.44 127.232 306.44 127.232 306.44Z"
          fill="white"/>
    <path fill-rule="evenodd" clip-rule="evenodd"
          d="M129.506 226.042C129.506 226.295 129.885 226.168 130.138 226.168H131.528C131.781 226.168 132.033 226.295 132.033 225.915L131.149 223.64C131.023 223.261 130.896 222.881 130.77 223.008C130.644 223.008 130.517 223.261 130.517 223.387C130.391 223.766 129.506 225.915 129.506 226.042ZM130.012 221.997C130.012 222.249 130.138 222.502 130.391 222.629C130.77 222.755 131.149 222.629 131.402 222.502C131.781 221.87 131.275 221.112 130.644 221.238C130.264 221.238 130.012 221.617 130.012 221.997ZM126.095 221.238C125.716 221.364 125.463 221.744 125.59 222.123C125.59 222.376 125.716 222.502 125.842 222.502C126.6 223.008 127.358 222.123 126.853 221.491C126.727 221.238 126.474 221.112 126.095 221.238ZM128.496 227.685H128.622C128.748 227.559 128.748 227.685 128.748 227.306V220.48C128.748 220.227 128.748 220.227 128.622 220.1H128.496C128.369 220.1 128.369 220.1 128.369 220.227V227.306C128.369 227.685 128.369 227.559 128.496 227.685ZM127.232 224.019C127.232 223.893 127.358 223.766 127.358 223.766C127.611 223.008 127.738 223.008 127.106 223.008H125.59C125.463 223.008 125.084 222.881 125.084 223.008C124.958 223.134 125.211 223.513 125.211 223.64L125.842 225.157C125.842 225.41 126.095 226.042 126.221 226.168C126.474 226.168 126.474 226.042 126.6 225.789L127.232 224.019Z"
          fill="white"/>
    <path fill-rule="evenodd" clip-rule="evenodd"
          d="M192.175 494.438V516.664H210.369V486.704V444.862V396.193H179.667V378.622H171.833V396.193V403.019V494.438H192.175Z"
          fill="#856565"/>
    <path fill-rule="evenodd" clip-rule="evenodd"
          d="M194.678 447.109C194.678 447.125 194.678 447.117 194.695 447.125C194.704 447.133 194.713 447.141 194.721 447.141C194.879 447.221 194.975 447.269 195.072 447.421C195.185 447.589 195.133 447.772 195.124 447.972C195.098 448.364 195.072 448.763 195.028 449.147V449.186C194.975 449.842 194.809 450.896 194.94 451.551C194.975 451.711 195.028 451.815 195.15 451.887C195.308 451.975 195.483 451.951 195.623 451.847C195.991 451.567 195.763 449.969 195.728 449.578C195.667 448.955 195.614 448.324 195.57 447.7L195.579 447.557C195.597 447.533 195.597 447.501 195.614 447.477C195.737 447.213 195.938 447.197 196.078 447.085C196.489 446.782 196.227 446.094 196.087 445.719C196.008 445.495 195.912 445.279 195.763 445.12C195.588 444.936 195.264 444.864 195.019 445.064C194.861 445.192 194.748 445.415 194.66 445.631C194.546 445.935 194.371 446.398 194.424 446.718C194.441 446.829 194.494 446.965 194.573 447.029C194.599 447.061 194.634 447.093 194.678 447.109ZM192.621 447.181C192.621 447.197 192.673 447.237 192.7 447.269C192.796 447.397 192.813 447.501 192.796 447.652C192.787 447.844 192.77 448.036 192.752 448.228C192.726 448.619 192.7 449.003 192.656 449.386C192.612 449.866 192.419 451.264 192.647 451.663C192.691 451.743 192.752 451.799 192.84 451.831C192.945 451.871 193.058 451.871 193.163 451.831C193.347 451.759 193.391 451.615 193.435 451.424C193.496 451.064 193.47 450.609 193.444 450.241C193.408 449.866 193.356 449.49 193.321 449.107C193.312 448.915 193.295 448.723 193.277 448.523C193.26 448.34 193.251 448.14 193.233 447.956L193.225 447.908C193.207 447.605 193.155 447.405 193.382 447.197C193.487 447.109 193.549 447.109 193.627 446.957C193.68 446.853 193.706 446.718 193.706 446.598C193.724 446.134 193.671 445.423 193.636 444.944L193.522 444.952C193.514 445.224 193.505 445.487 193.496 445.759L193.479 446.366C193.479 446.398 193.496 446.502 193.391 446.502C193.295 446.494 193.303 446.422 193.303 446.358L193.26 444.944H193.155C193.146 445.216 193.137 445.487 193.128 445.751C193.12 445.887 193.12 446.031 193.111 446.166C193.111 446.23 193.111 446.294 193.111 446.366C193.111 446.43 193.111 446.494 193.023 446.494C192.927 446.502 192.936 446.422 192.927 446.358L192.892 444.944C192.857 444.944 192.813 444.944 192.778 444.952L192.735 446.366C192.735 446.422 192.735 446.502 192.647 446.494C192.551 446.494 192.559 446.422 192.559 446.358L192.542 445.751C192.524 445.487 192.516 445.216 192.507 444.952C192.472 444.944 192.402 444.944 192.367 444.952C192.358 445.136 192.332 445.327 192.323 445.519C192.314 445.703 192.306 445.895 192.306 446.086C192.306 446.318 192.271 446.718 192.367 446.925C192.384 446.957 192.463 447.093 192.516 447.101C192.524 447.125 192.507 447.109 192.524 447.117C192.533 447.125 192.533 447.125 192.533 447.125L192.621 447.181Z"
          fill="white"/>
    <path fill-rule="evenodd" clip-rule="evenodd"
          d="M197.144 391.421C197.144 391.519 197.242 391.519 197.34 391.519C197.438 391.519 197.536 391.421 197.634 391.323C197.732 391.421 197.83 391.519 197.928 391.519C198.026 391.519 198.124 391.519 198.124 391.421C198.124 391.323 197.732 390.931 197.634 390.931C197.536 390.931 197.536 390.931 197.34 391.127C197.242 391.225 197.144 391.323 197.144 391.421ZM195.184 389.068H196.556C196.654 389.068 196.752 389.166 196.752 389.264V394.461C196.752 394.657 196.654 394.755 196.556 394.755H195.184C195.086 394.755 194.988 394.657 194.988 394.461V389.264C194.988 389.166 195.086 389.068 195.184 389.068ZM192.93 389.068H194.302C194.4 389.068 194.498 389.166 194.498 389.264V394.461C194.498 394.657 194.4 394.755 194.302 394.755H192.93C192.832 394.755 192.734 394.657 192.734 394.461V389.264C192.734 389.166 192.832 389.068 192.93 389.068ZM194.596 388.382V388.088C194.596 387.99 194.596 387.99 194.596 387.99C194.694 387.99 194.694 387.892 194.694 387.892C194.89 387.892 194.89 387.99 194.89 388.186V388.284V388.382H195.478C195.38 388.284 195.38 388.284 195.38 388.284C195.38 388.088 195.282 387.99 195.086 387.892C194.988 387.794 194.792 387.794 194.694 387.794C194.596 387.794 194.498 387.794 194.498 387.892C194.4 387.892 194.4 387.892 194.302 387.892C194.302 387.892 194.302 387.99 194.204 387.99C194.204 388.088 194.106 388.088 194.106 388.186C194.008 388.284 194.008 388.284 194.008 388.382H194.596ZM193.714 388.578V388.48C193.714 388.186 193.812 387.99 194.008 387.794C194.204 387.598 194.4 387.5 194.694 387.5H194.792C195.282 387.5 195.576 387.794 195.674 388.186C195.674 388.186 195.772 388.284 195.772 388.382C195.772 388.48 195.772 388.48 195.772 388.578L195.674 388.676H193.812C193.812 388.676 193.714 388.676 193.714 388.578ZM197.144 392.402C197.144 392.5 197.536 392.794 197.536 392.794C197.732 392.794 197.732 392.794 197.928 392.598C197.928 392.598 198.124 392.5 198.124 392.402C198.124 392.304 198.026 392.206 197.928 392.206C197.83 392.206 197.732 392.402 197.634 392.402C197.536 392.402 197.438 392.206 197.34 392.206C197.242 392.206 197.144 392.304 197.144 392.402Z"
          fill="white"/>
    <path fill-rule="evenodd" clip-rule="evenodd"
          d="M365.019 716.016H345.435V659.257H0.252695V639.663H49.6546V610.968C49.6546 605.911 49.6546 599.97 49.6546 594.913C49.6546 584.927 50.0337 579.365 64.1846 579.365C69.8703 579.365 73.9134 579.365 82.8841 579.365C84.7793 579.365 84.9057 580.25 84.9057 581.008C84.9057 582.019 84.5266 582.525 81.9997 582.525C78.3356 582.525 72.9026 582.525 70.8811 582.525C66.2062 582.525 61.1523 582.525 58.6253 583.157C53.6978 584.295 52.8133 588.214 52.8133 592.259C52.8133 599.591 52.8133 606.543 52.8133 611.473C107.901 611.473 163.747 611.473 218.834 611.473C223.004 611.473 233.364 611.473 239.555 611.473C256.612 611.6 273.29 610.589 280.113 599.464C282.513 595.545 283.272 590.236 283.272 582.525C283.272 579.238 283.272 574.814 283.272 574.308C280.492 574.308 207.463 574.308 197.229 574.308C195.334 574.308 189.395 574.308 185.226 574.308C181.814 574.308 180.425 574.182 180.425 572.665C180.425 571.021 181.688 570.895 184.847 570.895C188.89 570.895 194.828 570.895 196.723 570.895C206.326 570.895 215.928 570.895 225.657 570.895C244.736 570.895 264.067 570.895 283.272 570.769C283.272 547.13 283.272 487.21 283.272 463.192V280.146C283.272 267.379 290.347 263.334 301.466 263.334C306.772 263.334 312.205 263.334 316.754 263.334C320.544 263.334 324.208 263.334 327.872 263.334C333.684 263.334 339.496 263.334 345.435 263.334V160.181H325.093C317.133 160.181 320.797 160.307 308.415 160.181C302.35 160.055 296.917 159.423 291.105 157.653C275.438 153.102 276.575 137.932 268.742 124.154C264.572 116.822 255.349 105.95 248.021 101.526C234.754 93.8145 219.34 91.4127 204.052 91.5391C196.723 91.6655 190.785 91.5391 183.457 91.5391C178.403 91.5391 171.58 91.5391 166.4 91.5391C156.039 91.6655 142.268 91.7919 131.781 91.6655C130.517 91.6655 129.38 91.1599 129.38 89.7693C129.38 88.3788 130.644 87.8732 131.781 87.8732C163.62 87.8732 178.15 87.9996 207.21 87.7467C227.3 87.6203 250.168 93.1825 263.435 110.248C272.153 121.12 274.301 125.797 277.839 135.531C278.597 137.553 279.481 139.829 280.492 142.357C284.788 154.745 297.928 156.389 310.184 156.515C315.111 156.515 320.039 156.515 324.082 156.515C329.894 156.515 338.106 156.515 345.435 156.515V72.8301L80.1044 73.3357C79.7254 80.5412 79.9781 217.572 80.1044 226.042C80.1044 228.697 79.0937 229.202 78.0829 229.202C76.9458 229.202 75.8086 228.444 75.8086 226.042L75.6823 72.9565H0V68.9113H164.378V0.0165253H168.295V68.9113H345.435V1.02782H365.019V639.663H375V659.257H365.019V716.016ZM52.8133 639.663H345.435V506.298C319.533 506.298 307.151 506.298 286.936 506.298C286.936 510.091 286.936 540.43 286.936 563.563C286.936 573.17 286.936 581.64 286.936 586.317C286.936 609.83 269.373 614.128 251.053 614.634C245.367 614.887 239.05 614.634 233.238 614.634C218.708 614.76 204.431 614.634 190.027 614.634C181.309 614.634 172.338 614.634 163.368 614.634C139.867 614.634 116.493 614.634 92.9919 614.634C86.6745 614.76 80.3571 614.634 74.2924 614.634C67.3433 614.76 59.2571 614.634 52.8133 614.634V639.663ZM345.435 502.759V266.747C329.136 266.747 320.67 266.747 305.888 266.747C302.476 266.62 295.148 266.241 291.231 269.401C287.315 272.562 286.936 275.722 286.936 281.158C286.809 290.765 286.936 296.58 286.936 305.682C286.936 318.955 286.936 332.102 286.936 345.375C286.936 353.971 286.936 363.452 286.936 372.048C286.936 391.389 286.936 410.604 286.936 430.704C286.936 440.564 286.936 450.298 286.936 460.031C286.936 474.442 286.936 488.601 286.936 502.632C305.509 502.885 322.945 502.759 345.435 502.759Z"
          fill="#404040"/>
    <path d="M154.776 654.201L154.65 653.442C154.776 653.442 155.029 653.442 155.155 653.442C155.408 653.442 155.534 653.442 155.66 653.316C155.787 653.316 155.913 653.19 155.913 653.063C156.039 652.937 156.166 652.684 156.292 652.431C156.292 652.305 156.292 652.178 156.292 652.178L154.271 646.616H155.281L156.418 649.776C156.545 650.156 156.671 650.661 156.797 651.041C156.924 650.661 157.05 650.282 157.177 649.776L158.314 646.616H159.324L157.177 652.178C156.924 652.81 156.797 653.19 156.671 653.442C156.545 653.822 156.292 653.948 156.166 654.201C155.913 654.327 155.66 654.327 155.281 654.327C155.155 654.327 154.902 654.327 154.776 654.201ZM160.335 646.616H164.757V652.178H163.747V647.375H161.22V650.156C161.22 650.788 161.22 651.167 161.22 651.42C161.22 651.546 161.093 651.799 160.841 651.925C160.714 652.052 160.462 652.178 160.083 652.178C159.83 652.178 159.577 652.178 159.324 652.052V651.293H159.703C159.956 651.293 160.083 651.293 160.083 651.293C160.209 651.293 160.209 651.167 160.335 651.041C160.335 651.041 160.335 650.661 160.335 650.282V646.616ZM166.4 652.178V651.041H167.411V652.178H166.4ZM171.327 652.178L174.233 644.467H175.371L178.529 652.178H177.392L176.381 649.776H173.223L172.338 652.178H171.327ZM173.475 649.018H176.129L175.371 646.869C175.118 646.237 174.865 645.731 174.739 645.226C174.739 645.731 174.486 646.237 174.36 646.743L173.475 649.018ZM179.035 654.201L178.908 653.442C179.161 653.442 179.287 653.442 179.414 653.442C179.666 653.442 179.793 653.442 179.919 653.316C180.045 653.316 180.172 653.19 180.298 653.063C180.298 652.937 180.424 652.684 180.551 652.431C180.551 652.305 180.551 652.178 180.677 652.178L178.529 646.616H179.54L180.677 649.776C180.804 650.156 180.93 650.661 181.056 651.041C181.183 650.661 181.309 650.282 181.435 649.776L182.699 646.616H183.583L181.435 652.178C181.309 652.81 181.056 653.19 180.93 653.442C180.804 653.822 180.551 653.948 180.424 654.201C180.172 654.327 179.919 654.327 179.666 654.327C179.414 654.327 179.287 654.327 179.035 654.201ZM185.605 648.892V649.65H187.626C187.5 650.282 187.374 650.661 187.121 651.041C186.868 651.293 186.616 651.42 186.11 651.42C185.352 651.42 184.847 651.041 184.72 650.029L183.836 650.282C183.836 650.788 184.089 651.293 184.594 651.673C184.973 652.052 185.478 652.178 186.11 652.178C186.868 652.305 187.5 652.052 188.005 651.546C188.384 650.914 188.637 650.282 188.637 649.397C188.637 648.512 188.384 647.754 187.879 647.248C187.5 646.743 186.868 646.49 186.11 646.49C185.478 646.49 184.973 646.616 184.594 646.995C184.215 647.248 183.962 647.754 183.836 648.26L184.847 648.386C184.973 647.627 185.352 647.248 186.11 647.248C186.489 647.248 186.868 647.375 187.121 647.754C187.374 648.007 187.5 648.386 187.626 648.892H185.605ZM190.785 649.65V648.892C191.164 648.892 191.543 648.892 191.669 648.765C191.796 648.765 191.922 648.765 192.048 648.639C192.175 648.386 192.175 648.26 192.175 648.007C192.175 647.754 192.175 647.627 191.922 647.501C191.796 647.248 191.543 647.248 191.29 647.248C190.785 647.248 190.406 647.501 190.28 648.133L189.269 648.007C189.648 646.995 190.28 646.49 191.29 646.49C191.922 646.49 192.428 646.616 192.68 646.995C193.059 647.248 193.186 647.627 193.186 648.133C193.186 648.512 193.059 648.892 192.554 649.144C192.807 649.271 193.059 649.524 193.186 649.776C193.312 650.029 193.438 650.282 193.438 650.535C193.438 651.041 193.186 651.42 192.807 651.799C192.554 652.052 192.048 652.178 191.29 652.178C190.027 652.178 189.395 651.673 189.142 650.535L190.027 650.409C190.153 650.661 190.28 651.041 190.532 651.167C190.785 651.42 191.038 651.42 191.417 651.42C191.669 651.42 191.922 651.42 192.175 651.167C192.428 651.041 192.428 650.788 192.428 650.535C192.428 650.282 192.428 650.156 192.301 649.903C192.175 649.776 192.048 649.65 191.796 649.65C191.669 649.65 191.417 649.65 191.038 649.65C191.038 649.65 190.911 649.65 190.785 649.65ZM194.07 649.397C194.07 648.386 194.323 647.627 194.828 647.122C195.334 646.616 195.965 646.49 196.597 646.49C197.355 646.49 197.987 646.743 198.492 647.248C198.998 647.754 199.25 648.386 199.25 649.271C199.25 650.029 199.124 650.535 198.871 650.914C198.619 651.42 198.366 651.673 197.987 651.925C197.608 652.178 197.102 652.178 196.597 652.178C195.839 652.178 195.207 652.052 194.702 651.546C194.323 651.041 194.07 650.282 194.07 649.397ZM194.954 649.397C194.954 650.029 195.081 650.535 195.46 650.914C195.713 651.293 196.092 651.42 196.597 651.42C197.102 651.42 197.481 651.293 197.734 650.914C198.113 650.535 198.24 650.029 198.24 649.271C198.24 648.639 198.113 648.133 197.734 647.754C197.481 647.375 197.102 647.248 196.597 647.248C196.092 647.248 195.713 647.375 195.46 647.754C195.081 648.133 194.954 648.639 194.954 649.397ZM200.261 646.616H202.535C203.041 646.616 203.42 646.616 203.672 646.743C203.925 646.743 204.178 646.995 204.304 647.248C204.557 647.375 204.557 647.754 204.557 648.007C204.557 648.26 204.557 648.512 204.431 648.765C204.304 648.892 204.178 649.144 203.925 649.271C204.178 649.271 204.431 649.524 204.557 649.776C204.81 649.903 204.81 650.282 204.81 650.535C204.81 651.041 204.683 651.546 204.304 651.799C203.925 652.052 203.42 652.178 202.788 652.178H200.261V646.616ZM201.272 648.892H202.283C202.662 648.892 202.914 648.892 203.041 648.892C203.167 648.765 203.293 648.765 203.42 648.639C203.546 648.512 203.672 648.26 203.672 648.133C203.672 647.88 203.546 647.627 203.293 647.501C203.167 647.375 202.788 647.375 202.283 647.375H201.272V648.892ZM201.272 651.293H202.535C203.041 651.293 203.42 651.293 203.546 651.167C203.799 651.041 203.925 650.788 203.925 650.535C203.925 650.409 203.799 650.156 203.672 650.029C203.546 649.903 203.42 649.776 203.293 649.776C203.041 649.65 202.788 649.65 202.409 649.65H201.272V651.293ZM209.484 651.42C209.105 651.673 208.853 651.925 208.474 652.052C208.221 652.178 207.842 652.178 207.463 652.178C206.831 652.178 206.326 652.052 206.073 651.799C205.694 651.546 205.568 651.167 205.568 650.661C205.568 650.409 205.568 650.156 205.694 649.903C205.82 649.65 206.073 649.524 206.199 649.397C206.452 649.271 206.705 649.144 206.958 649.018C207.084 649.018 207.337 649.018 207.716 648.892C208.474 648.892 209.105 648.765 209.358 648.639C209.358 648.512 209.358 648.386 209.358 648.386C209.358 648.007 209.358 647.754 209.105 647.501C208.853 647.375 208.6 647.248 208.095 647.248C207.589 647.248 207.337 647.375 207.084 647.501C206.831 647.627 206.705 647.88 206.578 648.26L205.694 648.133C205.82 647.754 205.947 647.501 206.073 647.248C206.326 646.995 206.578 646.743 206.958 646.616C207.337 646.49 207.716 646.49 208.221 646.49C208.726 646.49 209.105 646.49 209.358 646.616C209.611 646.743 209.864 646.869 209.99 646.995C210.116 647.248 210.243 647.375 210.369 647.627C210.369 647.88 210.369 648.133 210.369 648.512V649.776C210.369 650.661 210.369 651.167 210.369 651.42C210.495 651.673 210.495 651.925 210.622 652.178H209.737C209.611 651.925 209.484 651.673 209.484 651.42ZM209.358 649.397C209.105 649.524 208.6 649.65 207.842 649.65C207.463 649.776 207.21 649.776 207.084 649.903C206.958 649.903 206.831 650.029 206.705 650.156C206.578 650.282 206.578 650.409 206.578 650.661C206.578 650.914 206.705 651.041 206.831 651.293C207.084 651.42 207.337 651.546 207.716 651.546C208.095 651.546 208.347 651.42 208.6 651.293C208.979 651.167 209.105 650.914 209.232 650.661C209.358 650.409 209.358 650.156 209.358 649.65V649.397Z"
          fill="white"/>
    <path d="M357.817 308.083V312.508H352.257V311.497H357.059V308.968H352.257V308.083H357.817ZM350.236 313.898H357.817V314.783H357.185C357.438 314.91 357.564 315.163 357.817 315.415C357.943 315.668 357.943 315.921 357.943 316.3C357.943 316.806 357.817 317.185 357.564 317.564C357.311 317.944 357.059 318.196 356.553 318.449C356.174 318.576 355.669 318.702 355.163 318.702C354.532 318.702 354.026 318.576 353.647 318.323C353.142 318.196 352.763 317.817 352.51 317.438C352.257 317.059 352.257 316.679 352.257 316.3C352.257 315.921 352.257 315.668 352.384 315.415C352.51 315.163 352.636 315.036 352.889 314.783H350.236V313.898ZM355.037 314.783C354.405 314.783 353.774 314.91 353.521 315.163C353.142 315.415 353.015 315.795 353.015 316.174C353.015 316.679 353.142 316.932 353.521 317.312C353.9 317.564 354.405 317.691 355.163 317.691C355.795 317.691 356.427 317.564 356.68 317.312C357.059 317.059 357.185 316.679 357.185 316.3C357.185 315.795 357.059 315.542 356.68 315.163C356.301 314.91 355.795 314.783 355.037 314.783ZM352.257 320.093H353.395V321.104H352.257V320.093ZM352.257 325.023L359.965 327.93V329.068L352.257 332.228V331.091L354.658 330.206V326.919L352.257 326.16V325.023ZM355.416 327.172V329.826L357.564 329.068C358.196 328.815 358.701 328.562 359.207 328.436C358.701 328.436 358.196 328.309 357.69 328.057L355.416 327.172ZM360.091 336.905V337.79C359.712 337.664 359.459 337.664 359.333 337.538C359.207 337.411 359.08 337.158 359.08 337.032C359.08 336.779 358.954 336.4 358.954 335.894C358.954 335.009 358.954 334.504 358.827 334.251C358.701 333.998 358.448 333.745 358.069 333.619C357.69 333.492 357.311 333.492 356.806 333.492C357.185 333.745 357.438 333.998 357.564 334.251C357.817 334.63 357.817 335.009 357.817 335.389C357.817 336.021 357.564 336.653 357.059 337.158C356.553 337.664 355.921 337.917 355.037 337.917C354.405 337.917 353.9 337.79 353.521 337.538C353.142 337.285 352.763 337.032 352.51 336.653C352.257 336.273 352.257 335.894 352.257 335.262C352.257 334.63 352.384 334.124 352.636 333.745C352.889 333.366 353.395 333.113 353.774 332.987C354.279 332.734 355.037 332.607 356.301 332.607C357.69 332.607 358.701 332.86 359.207 333.366C359.712 333.872 359.965 334.63 359.965 335.641C359.965 336.273 359.965 336.653 359.965 336.779L360.091 336.905ZM355.163 336.905C355.669 336.905 356.174 336.779 356.553 336.526C356.932 336.147 357.059 335.768 357.059 335.262C357.059 334.756 356.932 334.377 356.553 334.124C356.048 333.872 355.542 333.745 354.911 333.745C354.279 333.745 353.774 333.872 353.521 334.124C353.142 334.504 353.015 334.883 353.015 335.262C353.015 335.768 353.142 336.147 353.521 336.4C353.9 336.779 354.405 336.905 355.163 336.905ZM353.015 342.341C352.763 342.088 352.51 341.709 352.384 341.33C352.257 341.077 352.257 340.698 352.257 340.319C352.257 339.687 352.384 339.307 352.636 338.928C352.889 338.549 353.268 338.422 353.774 338.422C354.026 338.422 354.279 338.549 354.532 338.675C354.784 338.802 354.911 338.928 355.037 339.054C355.163 339.307 355.29 339.56 355.416 339.813C355.416 339.939 355.416 340.192 355.542 340.571C355.542 341.33 355.669 341.962 355.795 342.341C355.921 342.341 356.048 342.341 356.048 342.341C356.427 342.341 356.68 342.215 356.932 342.088C357.059 341.836 357.185 341.456 357.185 340.951C357.185 340.571 357.059 340.192 356.932 339.939C356.806 339.813 356.553 339.56 356.174 339.56L356.301 338.549C356.68 338.675 356.932 338.802 357.185 339.054C357.438 339.181 357.69 339.434 357.817 339.813C357.943 340.192 357.943 340.571 357.943 341.077C357.943 341.583 357.943 341.962 357.817 342.215C357.69 342.594 357.564 342.72 357.438 342.973C357.185 343.1 357.059 343.1 356.806 343.226C356.553 343.226 356.301 343.226 355.921 343.226H354.658C353.774 343.226 353.268 343.226 353.015 343.353C352.763 343.353 352.51 343.479 352.257 343.605V342.594C352.51 342.468 352.763 342.468 353.015 342.341ZM355.037 342.341C354.911 341.962 354.784 341.456 354.784 340.824C354.658 340.319 354.658 340.066 354.532 339.939C354.532 339.813 354.405 339.687 354.279 339.56C354.153 339.434 354.026 339.434 353.774 339.434C353.521 339.434 353.395 339.56 353.142 339.687C353.015 339.939 352.889 340.192 352.889 340.571C352.889 340.951 353.015 341.204 353.142 341.583C353.268 341.836 353.521 341.962 353.774 342.088C354.026 342.215 354.279 342.341 354.784 342.341H355.037ZM357.817 349.041H352.257V348.156H354.532V347.651C354.532 347.271 354.405 347.018 354.405 346.892C354.279 346.639 354.026 346.513 353.521 346.134L352.257 345.375V344.111L353.774 345.122C354.279 345.502 354.532 345.754 354.532 346.134C354.658 345.502 354.784 345.122 355.163 344.869C355.416 344.617 355.795 344.49 356.301 344.49C356.68 344.49 357.059 344.617 357.438 344.996C357.69 345.375 357.817 345.881 357.817 346.513V349.041ZM357.059 348.156V346.766C357.059 346.26 356.932 345.881 356.806 345.754C356.68 345.502 356.427 345.502 356.174 345.502C355.921 345.502 355.669 345.628 355.416 345.881C355.29 346.007 355.29 346.513 355.29 347.145V348.156H357.059Z"
          fill="white"/>
    <path fill-rule="evenodd" clip-rule="evenodd"
          d="M310.184 385.953C310.184 382.667 312.963 379.886 316.375 379.886C319.66 379.886 322.439 382.667 322.439 385.953C322.439 389.367 319.66 392.148 316.375 392.148C312.963 392.148 310.184 389.367 310.184 385.953ZM315.996 387.344V389.872H313.848V382.92H316.88C317.512 382.92 318.144 383.046 318.523 383.172C318.902 383.425 319.154 383.678 319.407 383.931C319.66 384.31 319.786 384.689 319.786 385.195C319.786 385.827 319.533 386.333 319.028 386.838C318.649 387.218 318.017 387.344 317.259 387.344H315.996ZM315.996 385.953H316.754C317.385 385.953 317.638 385.701 317.638 385.195C317.638 384.689 317.385 384.563 316.754 384.563H315.996V385.953Z"
          fill="#7385AC"/>
    <path fill-rule="evenodd" clip-rule="evenodd"
          d="M67.2168 596.556C67.2168 593.143 69.9964 590.362 73.4078 590.362C76.8192 590.362 79.5989 593.143 79.5989 596.556C79.5989 599.97 76.8192 602.751 73.4078 602.751C69.9964 602.751 67.2168 599.97 67.2168 596.556ZM73.1551 597.947V600.475H70.8809V593.523H73.9132C74.6713 593.523 75.1767 593.523 75.5557 593.775C75.9348 593.902 76.3138 594.155 76.5665 594.534C76.8192 594.913 76.8192 595.292 76.8192 595.672C76.8192 596.43 76.6929 596.936 76.1875 597.315C75.6821 597.694 75.0504 597.947 74.2923 597.947H73.1551ZM73.0288 596.43H73.7869C74.4186 596.43 74.7977 596.177 74.7977 595.672C74.7977 595.292 74.4186 595.04 73.9132 595.04H73.0288V596.43Z"
          fill="#7385AC"/>
</svg>
