<svg width="376" height="716" viewBox="0 0 376 716" fill="none" xmlns="http://www.w3.org/2000/svg">
    <g clip-path="url(#clip0_1303_8875)">
        <rect width="375" height="716" transform="translate(0.5)" fill="black"/>
        <path d="M86.1536 98.8688H247.59H249.573V100.855V602.884V604.87H247.59H208.524H206.541V602.884V580.779H159.8V602.884V604.87H157.817H86.1536H84.1702V602.884V100.855V98.8688H86.1536ZM245.606 102.841H88.1371V600.898H155.747V578.793V576.807H157.817H208.524H210.508V578.793V600.898H245.606V102.841Z"
              fill="#AFAEAE"/>
        <path d="M180.778 238.834C180.778 236.309 178.734 234.263 176.212 234.263C173.691 234.263 171.647 236.309 171.647 238.834C171.647 241.359 173.691 243.406 176.212 243.406C178.734 243.406 180.778 241.359 180.778 238.834Z"
              fill="#7385AC"/>
        <path d="M180.778 253.395C180.778 250.87 178.734 248.824 176.212 248.824C173.691 248.824 171.647 250.87 171.647 253.395C171.647 255.92 173.691 257.967 176.212 257.967C178.734 257.967 180.778 255.92 180.778 253.395Z"
              fill="#7385AC"/>
        <path d="M161.945 263.203C161.945 260.678 159.901 258.631 157.38 258.631C154.858 258.631 152.814 260.678 152.814 263.203C152.814 265.727 154.858 267.774 157.38 267.774C159.901 267.774 161.945 265.727 161.945 263.203Z"
              fill="#7385AC"/>
        <path d="M161.945 310.036C161.945 307.511 159.901 305.465 157.38 305.465C154.858 305.465 152.814 307.511 152.814 310.036C152.814 312.561 154.858 314.608 157.38 314.608C159.901 314.608 161.945 312.561 161.945 310.036Z"
              fill="#7385AC"/>
        <path d="M180.778 310.036C180.778 307.511 178.734 305.465 176.212 305.465C173.691 305.465 171.647 307.511 171.647 310.036C171.647 312.561 173.691 314.608 176.212 314.608C178.734 314.608 180.778 312.561 180.778 310.036Z"
              fill="#7385AC"/>
        <path d="M180.778 324.167C180.778 321.642 178.734 319.596 176.212 319.596C173.691 319.596 171.647 321.642 171.647 324.167C171.647 326.692 173.691 328.738 176.212 328.738C178.734 328.738 180.778 326.692 180.778 324.167Z"
              fill="#7385AC"/>
        <path d="M161.945 343.417C161.945 340.892 159.901 338.845 157.38 338.845C154.858 338.845 152.814 340.892 152.814 343.417C152.814 345.941 154.858 347.988 157.38 347.988C159.901 347.988 161.945 345.941 161.945 343.417Z"
              fill="#7385AC"/>
        <path d="M179.932 359.373L179.932 363.504L184.057 363.504L184.057 359.373L179.932 359.373Z" fill="#7385AC"/>
        <path d="M171.883 384.313C171.883 381.788 169.839 379.741 167.318 379.741C164.796 379.741 162.752 381.788 162.752 384.313C162.752 386.838 164.796 388.884 167.318 388.884C169.839 388.884 171.883 386.838 171.883 384.313Z"
              fill="#7385AC"/>
        <path d="M171.883 398.863C171.883 396.339 169.839 394.292 167.318 394.292C164.796 394.292 162.752 396.339 162.752 398.863C162.752 401.388 164.796 403.435 167.318 403.435C169.839 403.435 171.883 401.388 171.883 398.863Z"
              fill="#7385AC"/>
        <path d="M171.883 413.328C171.883 410.803 169.839 408.756 167.318 408.756C164.796 408.756 162.752 410.803 162.752 413.328C162.752 415.852 164.796 417.899 167.318 417.899C169.839 417.899 171.883 415.852 171.883 413.328Z"
              fill="#7385AC"/>
        <path d="M243.537 461.704H207.835V570.503H243.537V461.704Z" fill="#7385AC"/>
        <path fill-rule="evenodd" clip-rule="evenodd"
              d="M99.0894 570.503H206.886V461.704H149.538V520.335H99.0894V570.503Z" fill="#7385AC"/>
        <path fill-rule="evenodd" clip-rule="evenodd"
              d="M99.0894 470.944H107.023V507.987H99.0894V519.558H106.506H107.282H148.59V404.542H107.023V440.635H99.0894V470.944Z"
              fill="#7385AC"/>
        <path d="M106.161 379.76H90.2068V439.858H106.161V379.76Z" fill="#7385AC"/>
        <path fill-rule="evenodd" clip-rule="evenodd" d="M148.59 403.678H107.023V379.76H148.59V403.678Z"
              fill="#7385AC"/>
        <path fill-rule="evenodd" clip-rule="evenodd"
              d="M146.865 334.6C147.468 339.867 148.158 344.875 148.934 349.365V358.604H103.487V334.6H146.865Z"
              fill="#7385AC"/>
        <path d="M90.2068 272.847L90.2068 286.431L94.3326 286.431L94.3326 272.847L90.2068 272.847Z" fill="#7385AC"/>
        <path id="bank_1" d="M135.584 272.847L135.584 276.978L139.71 276.978L139.71 272.847L135.584 272.847Z"
              fill="#7385AC"/>
        <path id="store_1" fill-rule="evenodd" clip-rule="evenodd"
              d="M144.019 277.869C143.933 282.013 143.846 276.401 143.846 289.267C143.846 302.133 144.968 317.33 146.865 333.822H103.487H98.7443H90.2068V287.281H95.2086V277.869H144.019Z"
              fill="#7385AC"/>
        <text>
            <textPath href="#store_1" spacing="auto">Swiss Case</textPath>
        </text>
        <path fill-rule="evenodd" clip-rule="evenodd"
              d="M107.627 268.025H90.2068V249.288H102.108V244.884H107.627V268.025Z" fill="#7385AC"/>
        <path fill-rule="evenodd" clip-rule="evenodd" d="M127.979 268.025H108.575V244.884H127.979V268.025Z"
              fill="#7385AC"/>
        <path fill-rule="evenodd" clip-rule="evenodd"
              d="M146.434 244.884C145.485 252.051 144.881 259.822 144.45 268.025H128.927V244.884H146.434Z"
              fill="#7385AC"/>
        <path fill-rule="evenodd" clip-rule="evenodd"
              d="M102.108 219.929H150.832C149.107 226.923 147.641 234.954 146.52 243.934H102.108V219.929Z"
              fill="#7385AC"/>
        <path fill-rule="evenodd" clip-rule="evenodd"
              d="M90.2068 135.48H103.746V114.671H210.853L210.767 160.608H243.537V211.467H181.015C182.567 208.876 183.516 205.854 183.516 202.573C183.516 193.334 176.099 185.908 166.872 185.908C157.644 185.908 150.228 193.334 150.228 202.573C150.228 205.854 151.177 208.876 152.729 211.467H90.2068V135.48Z"
              fill="#7385AC"/>
        <path fill-rule="evenodd" clip-rule="evenodd"
              d="M182.912 219.929H231.809V244.107H187.224C186.103 235.126 184.637 226.923 182.912 219.929Z"
              fill="#7385AC"/>
        <path fill-rule="evenodd" clip-rule="evenodd"
              d="M189.294 267.421C188.863 259.563 188.173 252.051 187.396 245.056H201.884V267.421H189.294Z"
              fill="#7385AC"/>
        <path id="store_2" fill-rule="evenodd" clip-rule="evenodd"
              d="M243.537 249.115V289.439H189.897V289.267C189.897 282.1 189.725 275.106 189.38 268.37H202.315H202.747V267.852V245.056H231.809V248.597V249.115H232.326H243.537Z"
              fill="#7385AC"/>
        <path fill-rule="evenodd" clip-rule="evenodd"
              d="M243.537 290.389V314.567H189.121C189.552 306.795 189.897 298.765 189.897 290.389H243.537Z"
              fill="#7385AC"/>
        <path d="M239.407 315.552L239.407 319.683L243.533 319.683L243.533 315.552L239.407 315.552Z" fill="#7385AC"/>
        <path fill-rule="evenodd" clip-rule="evenodd" d="M243.537 334.081V358.604H200.159V334.081H243.537Z"
              fill="#7385AC"/>
        <path fill-rule="evenodd" clip-rule="evenodd"
              d="M199.383 358.604H184.809V349.97C185.758 345.048 186.62 339.694 187.31 334.081H199.383V358.604Z"
              fill="#7385AC"/>
        <path d="M199.297 359.382H184.809V370.002H199.297V359.382Z" fill="#7385AC"/>
        <path d="M206.886 379.76H185.068V404.628H206.886V379.76Z" fill="#7385AC"/>
        <path d="M206.886 405.405H185.068V425.697H206.886V405.405Z" fill="#7385AC"/>
        <path d="M206.886 426.56H185.068V446.852H206.886V426.56Z" fill="#7385AC"/>
        <path fill-rule="evenodd" clip-rule="evenodd"
              d="M225.427 379.76H207.835V446.852H243.537V393.748H225.427V379.76Z" fill="#7385AC"/>
        <path fill-rule="evenodd" clip-rule="evenodd"
              d="M211.543 104.913H243.537V113.893V159.831H211.543V113.893H102.97V134.79H90.2068V104.913H94.6911H102.97H211.543Z"
              fill="#404040"/>
        <path d="M101.159 219.929H90.2068V248.338H101.159V219.929Z" fill="#404040"/>
        <path d="M243.537 219.929H232.585V248.338H243.537V219.929Z" fill="#404040"/>
        <path d="M102.625 334.6H90.2068V358.604H102.625V334.6Z" fill="#404040"/>
        <path fill-rule="evenodd" clip-rule="evenodd"
              d="M98.3131 571.28H243.537V598.825H212.578V574.648H153.677V598.825H90.2068V576.634V571.28V440.635H98.3131V471.807H106.161V507.21H98.3131V571.28Z"
              fill="#404040"/>
        <path fill-rule="evenodd" clip-rule="evenodd"
              d="M99.1755 411.968C99.2617 412.14 99.6067 412.14 99.7792 412.14H101.245C101.418 412.14 101.763 412.14 101.676 411.881L100.814 409.464C100.642 409.205 100.642 408.773 100.383 408.859C100.21 408.945 100.21 409.205 100.124 409.377C99.9516 409.723 99.1755 411.881 99.1755 411.968ZM99.6929 407.909C99.6929 408.168 99.8654 408.341 100.038 408.514C100.383 408.686 100.814 408.6 100.986 408.341C101.418 407.737 100.986 407.046 100.383 407.132C99.9516 407.132 99.6067 407.478 99.6929 407.909ZM95.8122 407.132C95.3811 407.219 95.1223 407.65 95.2086 407.996C95.2948 408.255 95.3811 408.341 95.4673 408.427C96.2434 408.945 97.0196 408.082 96.5884 407.478C96.4159 407.219 96.071 407.046 95.8122 407.132ZM98.1407 413.608H98.2269C98.3994 413.522 98.3994 413.522 98.3994 413.263V406.355C98.3994 406.096 98.3994 406.096 98.2269 406.01H98.1407C98.0544 406.01 98.0544 406.01 98.0544 406.182V413.263C98.0544 413.522 98.0544 413.522 98.1407 413.608ZM97.0196 409.636C97.2783 408.945 97.3645 408.859 96.7609 408.859H95.2948C95.1223 408.859 94.7774 408.773 94.6912 408.945C94.6912 409.032 94.7774 409.377 94.8636 409.55L95.4673 411.104C95.5535 411.363 95.726 411.881 95.8985 412.14C96.0547 412.172 96.1317 412.028 96.2434 411.709C96.4435 411.136 96.8092 410.198 97.0196 409.636Z"
              fill="white"/>
        <path d="M99.1756 349.192C99.3481 349.192 99.4343 349.365 99.4343 349.452C99.4343 349.624 99.3481 349.711 99.1756 349.711H97.5371H97.2784V349.452V348.156H95.9848H95.7261V347.897V346.516H94.4325H94.1738V346.257V344.53C94.1738 344.443 94.2601 344.271 94.4325 344.271C94.605 344.271 94.6913 344.443 94.6913 344.53V345.998H95.9848H96.2435V346.257V347.638H97.5371H97.882V347.897V349.192H99.1756Z"
              fill="white"/>
        <path fill-rule="evenodd" clip-rule="evenodd"
              d="M163.25 227.528C163.25 227.787 163.25 227.873 163.422 228.046C163.509 228.132 163.681 228.219 163.854 228.219H165.147C165.233 228.219 165.406 228.046 165.406 227.959L168.769 224.678C168.855 224.506 168.855 224.506 169.028 224.506H169.718C169.977 224.506 170.235 224.333 170.321 224.16C170.321 224.074 170.321 223.987 170.321 223.901V223.815C170.321 223.469 170.063 223.21 169.804 223.21H168.424C168.338 223.21 168.252 223.383 168.166 223.469L164.716 226.923C164.63 227.01 164.63 226.923 164.457 226.923C164.026 226.923 163.681 226.923 163.422 227.096C163.336 227.182 163.25 227.355 163.25 227.528ZM168.252 226.06C168.252 226.233 168.424 226.233 168.597 226.233L167.303 227.528C167.217 227.614 167.131 227.7 167.131 227.873C167.131 227.959 167.217 228.046 167.303 228.046C167.476 228.046 167.476 227.959 167.562 227.873L168.855 226.578C168.855 227.01 169.287 226.923 169.287 226.664V226.06C169.287 225.887 169.2 225.801 169.114 225.801H168.51C168.338 225.801 168.252 225.887 168.252 226.06ZM165.665 222.865C165.665 223.124 165.751 223.297 166.096 223.556C166.01 223.642 165.665 223.642 165.665 224.246C165.665 224.592 165.665 224.937 165.665 225.283L167.044 223.901C167.044 223.815 166.958 223.728 166.872 223.642L166.786 223.556C166.699 223.556 166.786 223.556 166.699 223.556C166.872 223.469 167.131 223.124 167.131 222.951C167.131 222.692 167.044 222.52 166.872 222.347C166.441 221.915 165.665 222.347 165.665 222.865Z"
              fill="white"/>
        <path fill-rule="evenodd" clip-rule="evenodd"
              d="M163.25 354.978C163.25 355.237 163.25 355.323 163.422 355.496C163.509 355.582 163.681 355.669 163.854 355.669H165.147C165.233 355.669 165.406 355.496 165.406 355.41L168.769 352.128C168.855 351.956 168.855 351.956 169.028 351.956H169.718C169.977 351.956 170.235 351.783 170.321 351.61C170.321 351.524 170.321 351.438 170.321 351.351V351.265C170.321 350.919 170.063 350.66 169.804 350.66H168.424C168.338 350.66 168.252 350.833 168.166 350.919L164.716 354.373C164.63 354.46 164.63 354.46 164.457 354.46C164.026 354.46 163.681 354.373 163.422 354.632C163.336 354.632 163.25 354.891 163.25 354.978ZM168.252 353.51C168.252 353.683 168.424 353.683 168.597 353.683L167.303 355.064C167.217 355.064 167.131 355.15 167.131 355.323C167.131 355.41 167.217 355.496 167.303 355.496C167.476 355.496 167.476 355.41 167.562 355.323L168.855 354.028C168.855 354.46 169.287 354.373 169.287 354.114V353.51C169.287 353.424 169.2 353.251 169.114 353.251H168.51C168.338 353.251 168.252 353.424 168.252 353.51ZM165.665 350.315C165.665 350.66 165.751 350.833 166.096 351.006C166.01 351.092 165.665 351.178 165.665 351.697C165.665 352.042 165.665 352.387 165.665 352.819L167.044 351.438C167.044 351.265 166.958 351.178 166.872 351.092L166.786 351.006C166.699 351.006 166.786 351.006 166.699 351.006C166.872 350.919 167.131 350.66 167.131 350.401C167.131 350.142 167.044 350.056 166.872 349.883C166.441 349.365 165.665 349.797 165.665 350.315Z"
              fill="white"/>
        <path fill-rule="evenodd" clip-rule="evenodd"
              d="M100.477 370.665C100.477 370.785 100.537 370.845 100.657 370.845C100.777 370.845 100.874 370.663 100.994 370.603C101.054 370.663 101.197 370.845 101.317 370.845C101.437 370.845 101.497 370.785 101.497 370.665C101.497 370.544 101.077 370.184 101.017 370.184C100.912 370.184 100.916 370.184 100.683 370.385C100.56 370.492 100.477 370.544 100.477 370.665ZM98.3765 368.201H99.8169C99.937 368.201 100.057 368.261 100.057 368.381V373.97C100.057 374.09 99.937 374.15 99.8169 374.15H98.3765C98.2564 374.15 98.1364 374.09 98.1364 373.97V368.381C98.1364 368.261 98.2564 368.201 98.3765 368.201ZM96.0357 368.201H97.4762C97.5962 368.201 97.7163 368.261 97.7163 368.381V373.97C97.7163 374.09 97.5962 374.15 97.4762 374.15H96.0357C95.9157 374.15 95.7957 374.09 95.7957 373.97V368.381C95.7957 368.261 95.9157 368.201 96.0357 368.201ZM97.7763 367.48V367.179C97.7763 367.119 97.7763 367.059 97.8363 367.059C97.8363 366.999 97.8963 366.999 97.9563 366.999C98.0764 366.999 98.0764 367.119 98.0764 367.239C98.0764 367.299 98.0764 367.359 98.0764 367.359C98.0764 367.419 98.0764 367.419 98.0764 367.48H98.6766C98.6766 367.419 98.6766 367.359 98.6166 367.299C98.5565 367.179 98.4965 367.059 98.3165 366.999C98.1964 366.879 98.0764 366.879 97.8963 366.879C97.7763 366.879 97.7163 366.879 97.6562 366.939C97.5962 366.939 97.5362 366.939 97.5362 366.999C97.4762 366.999 97.4762 367.059 97.4162 367.059C97.3562 367.119 97.2961 367.179 97.2361 367.299C97.2361 367.359 97.1761 367.419 97.1761 367.48H97.7763ZM96.876 367.72C96.876 367.66 96.876 367.6 96.876 367.6C96.876 367.299 96.996 367.059 97.1761 366.879C97.3562 366.698 97.5962 366.518 97.8963 366.518H97.9563C98.4965 366.518 98.7966 366.879 98.9167 367.239C98.9767 367.299 98.9767 367.419 99.0367 367.48C99.0367 367.54 99.0367 367.6 99.0367 367.66C98.9767 367.72 98.9767 367.78 98.8566 367.78H96.996C96.936 367.78 96.876 367.72 96.876 367.72ZM100.477 371.686C100.477 371.806 100.897 372.167 100.957 372.167C101.137 372.167 101.113 372.167 101.317 371.963C101.377 371.903 101.497 371.806 101.497 371.686C101.497 371.566 101.437 371.506 101.317 371.506C101.197 371.506 101.077 371.715 101.017 371.775C100.897 371.715 100.777 371.506 100.657 371.506C100.537 371.506 100.477 371.566 100.477 371.686Z"
              fill="white"/>
        <path fill-rule="evenodd" clip-rule="evenodd"
              d="M365.045 715.741H345.469V658.924H0.778732V639.409H50.1065H51.2276V397.375V396.943C51.2276 390.985 50.7964 386.495 50.0203 383.041H0.864969V378.983H48.8129C45.4497 369.743 39.8442 368.448 39.6718 353.596V352.646V72.7916H0.778732V72.878H0.52002V61.3936H164.716V1.52588e-05H168.597V61.3936H345.469V1.52588e-05H365.045V639.409H375.049V658.924H365.045V715.741ZM70.8035 511.959V517.14V519.471C70.8035 524.911 70.1998 530.61 68.3026 535.359C66.0604 540.799 60.3687 544.685 54.9358 545.894V612.814H235.431H236.379H244.485C256.817 612.814 272.771 621.967 276.307 639.409H345.469V521.716L301.488 517.658C297.521 517.313 294.072 516.881 290.105 516.881H249.66V513.168H286.656C284.327 511.355 282.43 509.109 281.395 506.433C279.412 501.684 278.808 495.985 278.808 490.545V487.091V483.032V153.096V152.923V145.929V143.252C278.808 128.314 284.672 127.968 295.107 127.968H301.316H301.402H345.469V82.0309V72.7916H43.38V117.347C46.657 117.347 49.5891 117.347 52.8661 117.347C70.4585 117.347 70.8035 124.342 70.8035 136.603V141.007V144.115V511.959ZM54.9358 541.663C65.4567 538.641 66.9228 528.711 66.9228 522.753V517.14V144.115V141.007V133.322C66.9228 128.4 65.8017 123.478 59.7651 122.183C56.6605 121.233 50.279 121.319 44.5873 121.319H43.38V350.574V353.596C43.8974 371.988 55.022 367.93 54.9358 396.943V397.375V541.663ZM345.469 517.572L295.107 512.909C286.311 510.577 283.637 503.497 282.947 497.712C282.344 493.221 282.602 487.695 282.516 483.032V145.929C282.516 141.784 282.085 136.085 285.362 133.494C287.259 132.027 289.76 131.681 292.347 131.681H301.316H301.402H345.469V156.377V160.003V219.066V263.19V266.557V502.547V506.087V517.572ZM54.9358 639.409H272.34C267.77 621.794 252.419 616.613 245.348 616.613L235.431 616.527H54.9358V639.409Z"
              fill="#404040"/>
        <path fill-rule="evenodd" clip-rule="evenodd"
              d="M302.609 289.18C302.609 285.813 305.369 283.05 308.732 283.05C312.095 283.05 314.855 285.813 314.855 289.18C314.855 292.548 312.095 295.311 308.732 295.311C305.369 295.311 302.609 292.548 302.609 289.18ZM308.474 290.562V293.066H306.231V286.158H309.25C310.026 286.158 310.543 286.245 310.974 286.331C311.319 286.504 311.664 286.763 311.837 287.194C312.095 287.54 312.182 287.885 312.182 288.317C312.182 289.008 311.923 289.526 311.492 289.958C311.061 290.389 310.457 290.562 309.681 290.562H308.474ZM308.387 289.094H309.163C309.767 289.094 310.026 288.835 310.026 288.317C310.026 287.885 309.767 287.712 309.163 287.712H308.387V289.094Z"
              fill="#7385AC"/>
        <path d="M145.054 654.434L144.968 653.57C145.14 653.57 145.313 653.656 145.485 653.656C145.657 653.656 145.83 653.57 146.002 653.484C146.089 653.484 146.261 653.311 146.261 653.225C146.347 653.138 146.434 652.879 146.606 652.534C146.606 652.448 146.606 652.361 146.692 652.275L144.536 646.749H145.571L146.692 649.943C146.865 650.375 147.037 650.807 147.123 651.239C147.21 650.807 147.382 650.375 147.555 649.943L148.676 646.749H149.624L147.555 652.361C147.296 652.966 147.123 653.397 147.037 653.656C146.865 653.916 146.692 654.175 146.434 654.261C146.261 654.434 146.002 654.52 145.657 654.52C145.485 654.52 145.313 654.52 145.054 654.434ZM150.659 646.749H155.057V652.275H154.109V647.526H151.608V650.289C151.608 650.893 151.608 651.325 151.522 651.584C151.522 651.757 151.349 651.93 151.177 652.102C151.004 652.189 150.745 652.275 150.401 652.275C150.142 652.275 149.883 652.275 149.624 652.275V651.498H150.056C150.228 651.498 150.401 651.498 150.487 651.411C150.573 651.411 150.573 651.325 150.659 651.239C150.659 651.152 150.659 650.893 150.659 650.375V646.749ZM156.696 652.275V651.239H157.731V652.275H156.696ZM162.474 652.275V644.59H163.94L165.751 650.03C165.923 650.548 166.096 650.893 166.096 651.152C166.182 650.893 166.354 650.462 166.527 649.943L168.424 644.59H169.718V652.275H168.769V645.885L166.527 652.275H165.665L163.422 645.799V652.275H162.474ZM171.356 654.434L171.184 653.57C171.442 653.57 171.615 653.656 171.787 653.656C171.96 653.656 172.132 653.57 172.219 653.484C172.391 653.484 172.477 653.311 172.564 653.225C172.65 653.138 172.736 652.879 172.822 652.534C172.822 652.448 172.908 652.361 172.908 652.275L170.839 646.749H171.787L172.995 649.943C173.167 650.375 173.253 650.807 173.426 651.239C173.512 650.807 173.598 650.375 173.771 649.943L174.978 646.749H175.927L173.771 652.361C173.598 652.966 173.426 653.397 173.253 653.656C173.081 653.916 172.908 654.175 172.736 654.261C172.477 654.434 172.219 654.52 171.96 654.52C171.701 654.52 171.529 654.52 171.356 654.434ZM180.152 650.289L181.101 650.375C181.015 650.98 180.756 651.498 180.325 651.843C179.894 652.189 179.376 652.361 178.773 652.361C178.083 652.361 177.479 652.189 176.962 651.67C176.53 651.152 176.272 650.462 176.272 649.512C176.272 648.907 176.358 648.389 176.617 647.957C176.789 647.526 177.134 647.18 177.479 646.921C177.91 646.749 178.341 646.576 178.859 646.576C179.376 646.576 179.894 646.749 180.325 647.094C180.67 647.353 180.929 647.785 181.015 648.389L180.152 648.476C180.066 648.13 179.894 647.871 179.635 647.698C179.463 647.439 179.204 647.353 178.859 647.353C178.341 647.353 177.996 647.526 177.738 647.871C177.393 648.217 177.22 648.735 177.22 649.512C177.22 650.203 177.393 650.807 177.652 651.152C177.996 651.498 178.341 651.584 178.773 651.584C179.204 651.584 179.463 651.498 179.721 651.325C179.98 651.066 180.152 650.721 180.152 650.289ZM181.446 646.749H185.93V647.526H184.119V652.275H183.171V647.526H181.446V646.749ZM190.328 651.584C189.983 651.843 189.639 652.102 189.294 652.189C188.949 652.361 188.604 652.361 188.259 652.361C187.655 652.361 187.138 652.275 186.879 651.93C186.534 651.67 186.361 651.239 186.361 650.807C186.361 650.548 186.448 650.289 186.534 650.03C186.706 649.857 186.793 649.684 187.051 649.512C187.224 649.425 187.483 649.253 187.741 649.253C187.914 649.166 188.172 649.166 188.517 649.08C189.294 648.994 189.897 648.907 190.242 648.735C190.242 648.648 190.242 648.562 190.242 648.476C190.242 648.13 190.156 647.871 189.983 647.698C189.725 647.526 189.38 647.353 188.862 647.353C188.431 647.353 188.086 647.439 187.914 647.612C187.655 647.785 187.569 648.044 187.396 648.476L186.534 648.303C186.62 647.957 186.706 647.612 186.965 647.353C187.138 647.094 187.396 646.921 187.741 646.835C188.086 646.662 188.517 646.576 189.035 646.576C189.466 646.576 189.897 646.662 190.156 646.749C190.501 646.921 190.673 647.008 190.846 647.18C190.932 647.353 191.105 647.612 191.105 647.871C191.191 648.044 191.191 648.303 191.191 648.735V649.943C191.191 650.807 191.191 651.411 191.191 651.584C191.277 651.843 191.363 652.102 191.449 652.275H190.501C190.415 652.102 190.328 651.843 190.328 651.584ZM190.242 649.512C189.897 649.598 189.38 649.771 188.69 649.857C188.259 649.943 188 649.943 187.828 650.03C187.741 650.116 187.569 650.203 187.483 650.375C187.396 650.462 187.396 650.634 187.396 650.807C187.396 651.066 187.483 651.239 187.655 651.411C187.828 651.584 188.086 651.67 188.517 651.67C188.862 651.67 189.121 651.584 189.466 651.411C189.725 651.239 189.897 651.066 190.07 650.807C190.156 650.548 190.242 650.289 190.242 649.857V649.512ZM192.571 646.749H193.519V650.98L196.193 646.749H197.141V652.275H196.193V648.044L193.605 652.275H192.571V646.749ZM195.848 644.676H196.451C196.451 645.108 196.279 645.453 196.02 645.712C195.761 645.971 195.416 646.058 194.985 646.058C194.468 646.058 194.123 645.971 193.864 645.712C193.605 645.453 193.433 645.108 193.433 644.676H194.037C194.123 644.935 194.209 645.108 194.382 645.194C194.468 645.367 194.64 645.367 194.899 645.367C195.244 645.367 195.416 645.367 195.589 645.194C195.675 645.108 195.848 644.935 195.848 644.676ZM201.712 644.59H202.66V647.957C203.178 647.957 203.436 647.871 203.695 647.698C203.868 647.526 204.126 647.094 204.385 646.403C204.558 645.885 204.73 645.54 204.903 645.367C205.075 645.108 205.247 644.935 205.506 644.849C205.765 644.676 206.024 644.59 206.369 644.59C206.714 644.59 206.886 644.59 206.972 644.59V645.54C206.886 645.54 206.8 645.54 206.714 645.54C206.627 645.453 206.541 645.453 206.541 645.453C206.196 645.453 205.937 645.54 205.851 645.712C205.679 645.885 205.506 646.231 205.247 646.749C204.989 647.353 204.816 647.785 204.644 647.957C204.471 648.13 204.213 648.217 203.954 648.389C204.471 648.476 204.989 648.994 205.42 649.771L207.058 652.275H205.765L204.471 650.203C204.126 649.598 203.868 649.253 203.609 648.994C203.35 648.821 203.092 648.735 202.66 648.735V652.275H201.712V644.59ZM211.37 651.584C211.025 651.843 210.68 652.102 210.335 652.189C210.077 652.361 209.732 652.361 209.301 652.361C208.697 652.361 208.266 652.275 207.921 651.93C207.576 651.67 207.403 651.239 207.403 650.807C207.403 650.548 207.49 650.289 207.576 650.03C207.748 649.857 207.921 649.684 208.093 649.512C208.266 649.425 208.524 649.253 208.783 649.253C208.956 649.166 209.214 649.166 209.646 649.08C210.335 648.994 210.939 648.907 211.284 648.735C211.284 648.648 211.284 648.562 211.284 648.476C211.284 648.13 211.198 647.871 211.025 647.698C210.767 647.526 210.422 647.353 209.991 647.353C209.473 647.353 209.214 647.439 208.956 647.612C208.783 647.785 208.611 648.044 208.524 648.476L207.576 648.303C207.662 647.957 207.835 647.612 208.007 647.353C208.18 647.094 208.438 646.921 208.869 646.835C209.214 646.662 209.646 646.576 210.077 646.576C210.594 646.576 210.939 646.662 211.284 646.749C211.543 646.921 211.802 647.008 211.888 647.18C212.06 647.353 212.146 647.612 212.233 647.871C212.233 648.044 212.233 648.303 212.233 648.735V649.943C212.233 650.807 212.233 651.411 212.319 651.584C212.319 651.843 212.405 652.102 212.491 652.275H211.543C211.457 652.102 211.37 651.843 211.37 651.584ZM211.284 649.512C210.939 649.598 210.422 649.771 209.732 649.857C209.387 649.943 209.128 649.943 208.956 650.03C208.783 650.116 208.611 650.203 208.524 650.375C208.438 650.462 208.438 650.634 208.438 650.807C208.438 651.066 208.524 651.239 208.697 651.411C208.869 651.584 209.214 651.67 209.559 651.67C209.904 651.67 210.249 651.584 210.508 651.411C210.767 651.239 211.025 651.066 211.112 650.807C211.198 650.548 211.284 650.289 211.284 649.857V649.512ZM213.699 654.434V646.749H214.561V647.439C214.734 647.18 214.992 647.008 215.251 646.835C215.51 646.662 215.768 646.576 216.113 646.576C216.631 646.576 217.062 646.749 217.407 647.008C217.752 647.18 218.011 647.526 218.183 648.044C218.356 648.476 218.442 648.907 218.442 649.425C218.442 650.03 218.356 650.548 218.183 650.98C218.011 651.411 217.666 651.757 217.321 652.016C216.89 652.275 216.458 652.361 216.113 652.361C215.768 652.361 215.51 652.361 215.251 652.189C214.992 652.102 214.82 651.93 214.647 651.67V654.434H213.699ZM214.561 649.512C214.561 650.289 214.647 650.807 214.992 651.152C215.251 651.411 215.596 651.584 216.027 651.584C216.458 651.584 216.803 651.411 217.062 651.066C217.407 650.721 217.493 650.203 217.493 649.425C217.493 648.735 217.407 648.217 217.062 647.871C216.803 647.526 216.458 647.353 216.027 647.353C215.682 647.353 215.337 647.526 214.992 647.871C214.647 648.303 214.561 648.821 214.561 649.512ZM219.649 646.749H220.511V650.98L223.185 646.749H224.133V652.275H223.271V648.044L220.598 652.275H219.649V646.749ZM225.599 646.749H227.066L228.532 651.152L230.17 646.749H231.464V652.275H230.515V647.785L228.877 652.275H228.1L226.548 647.612V652.275H225.599V646.749Z"
              fill="white"/>
        <path d="M357.974 291.166V295.484H352.455V294.62H357.198V292.116H352.455V291.166H357.974ZM350.299 296.952H357.974V297.815H357.198C357.543 297.988 357.715 298.247 357.888 298.506C357.974 298.679 358.06 299.024 358.06 299.37C358.06 299.888 357.974 300.319 357.715 300.665C357.456 301.01 357.111 301.269 356.68 301.442C356.249 301.615 355.732 301.701 355.214 301.701C354.697 301.701 354.179 301.615 353.662 301.442C353.231 301.269 352.886 300.924 352.627 300.578C352.455 300.147 352.282 299.715 352.282 299.283C352.282 299.024 352.368 298.765 352.455 298.506C352.627 298.247 352.8 297.988 352.972 297.902H350.299V296.952ZM355.128 297.815C354.438 297.815 353.921 297.902 353.576 298.247C353.231 298.506 353.058 298.851 353.058 299.283C353.058 299.715 353.231 300.06 353.576 300.319C353.921 300.665 354.524 300.751 355.214 300.751C355.904 300.751 356.421 300.665 356.853 300.319C357.198 300.06 357.37 299.715 357.37 299.283C357.37 298.938 357.111 298.592 356.766 298.247C356.421 297.902 355.904 297.815 355.128 297.815ZM352.455 303.169H353.489V304.205H352.455V303.169ZM360.043 308.954V313.962H359.181V309.99H356.766V311.804C356.766 312.494 356.766 313.013 356.594 313.444C356.508 313.79 356.249 314.135 355.904 314.394C355.559 314.653 355.128 314.74 354.611 314.74C354.266 314.74 353.921 314.653 353.576 314.48C353.231 314.308 352.972 314.049 352.713 313.703C352.541 313.358 352.455 312.753 352.455 311.976V308.954H360.043ZM353.317 309.99V311.976C353.317 312.581 353.403 312.926 353.576 313.272C353.834 313.531 354.179 313.617 354.611 313.617C354.955 313.617 355.214 313.531 355.387 313.444C355.645 313.272 355.732 313.013 355.818 312.753C355.904 312.494 355.904 311.976 355.904 311.372V309.99H353.317ZM353.144 319.402C352.8 319.057 352.627 318.712 352.455 318.452C352.368 318.107 352.282 317.762 352.282 317.416C352.282 316.812 352.455 316.294 352.713 315.948C353.058 315.689 353.403 315.517 353.921 315.517C354.179 315.517 354.438 315.517 354.611 315.689C354.869 315.776 355.042 315.948 355.128 316.207C355.3 316.38 355.387 316.553 355.473 316.812C355.473 317.071 355.559 317.33 355.645 317.675C355.732 318.452 355.818 318.971 355.904 319.316C356.077 319.402 356.163 319.402 356.163 319.402C356.594 319.402 356.853 319.316 356.939 319.057C357.198 318.884 357.284 318.539 357.284 318.021C357.284 317.589 357.198 317.244 357.025 317.071C356.939 316.812 356.594 316.639 356.249 316.553L356.335 315.689C356.766 315.776 357.111 315.862 357.284 316.035C357.543 316.294 357.715 316.553 357.888 316.898C357.974 317.244 358.06 317.675 358.06 318.193C358.06 318.625 357.974 319.057 357.888 319.316C357.801 319.575 357.629 319.834 357.456 320.007C357.284 320.093 357.111 320.179 356.853 320.266C356.68 320.266 356.421 320.352 355.99 320.352H354.697C353.834 320.352 353.317 320.352 353.058 320.352C352.886 320.438 352.627 320.525 352.455 320.611V319.661C352.627 319.489 352.886 319.489 353.144 319.402ZM355.214 319.402C355.042 319.057 354.955 318.539 354.869 317.848C354.783 317.416 354.697 317.157 354.611 316.985C354.611 316.812 354.524 316.726 354.352 316.639C354.179 316.553 354.093 316.466 353.921 316.466C353.662 316.466 353.489 316.553 353.317 316.812C353.144 316.985 353.058 317.244 353.058 317.589C353.058 318.021 353.144 318.28 353.231 318.625C353.403 318.884 353.662 319.057 353.921 319.23C354.093 319.316 354.438 319.316 354.869 319.316L355.214 319.402ZM350.299 321.561L351.161 321.475C351.075 321.734 351.075 321.906 351.075 321.993C351.075 322.252 351.075 322.425 351.161 322.511C351.247 322.684 351.333 322.77 351.506 322.856C351.592 322.856 351.765 323.029 352.196 323.115C352.196 323.115 352.282 323.202 352.368 323.202L357.974 321.129V322.079L354.783 323.288C354.352 323.374 353.921 323.547 353.489 323.633C353.921 323.806 354.352 323.892 354.697 324.065L357.974 325.274V326.137L352.282 324.065C351.678 323.892 351.333 323.72 351.075 323.547C350.73 323.374 350.557 323.202 350.385 322.943C350.212 322.77 350.212 322.511 350.212 322.165C350.212 321.993 350.212 321.82 350.299 321.561ZM357.974 332.268V333.218H352.455V332.268H357.974ZM357.974 327.001V327.951H355.818V329.16C355.818 329.937 355.645 330.541 355.3 330.887C355.042 331.318 354.611 331.577 354.093 331.577C353.662 331.577 353.231 331.405 352.886 331.059C352.541 330.714 352.455 330.11 352.455 329.332V327.001H357.974ZM353.144 327.951V328.901C353.144 329.505 353.231 329.937 353.403 330.196C353.576 330.455 353.748 330.628 354.093 330.628C354.352 330.628 354.524 330.455 354.697 330.282C354.955 330.11 355.042 329.678 355.042 329.073V327.951H353.144ZM350.299 334.686H357.974V335.549H357.198C357.543 335.722 357.715 335.981 357.888 336.154C357.974 336.413 358.06 336.758 358.06 337.104C358.06 337.622 357.974 337.967 357.715 338.399C357.456 338.744 357.111 339.003 356.68 339.176C356.249 339.349 355.732 339.435 355.214 339.435C354.697 339.435 354.179 339.349 353.662 339.176C353.231 338.917 352.886 338.658 352.627 338.313C352.455 337.881 352.282 337.449 352.282 337.017C352.282 336.758 352.368 336.499 352.455 336.24C352.627 335.981 352.8 335.722 352.972 335.636H350.299V334.686ZM355.128 335.549C354.438 335.549 353.921 335.636 353.576 335.981C353.231 336.24 353.058 336.586 353.058 337.017C353.058 337.449 353.231 337.794 353.576 338.054C353.921 338.313 354.524 338.485 355.214 338.485C355.904 338.485 356.421 338.399 356.853 338.054C357.198 337.794 357.37 337.449 357.37 337.017C357.37 336.672 357.111 336.24 356.766 335.981C356.421 335.636 355.904 335.549 355.128 335.549ZM357.974 343.925H355.559C355.559 344.271 355.645 344.443 355.732 344.616C355.818 344.702 356.163 344.875 356.766 345.134C357.284 345.307 357.629 345.566 357.715 345.739C357.888 345.911 357.974 346.17 357.974 346.516V346.861H357.198V346.602C357.198 346.343 357.111 346.17 357.111 346.084C357.025 346.084 356.766 345.911 356.421 345.825C355.99 345.652 355.818 345.566 355.645 345.393C355.473 345.307 355.387 345.134 355.3 344.875C355.128 345.22 354.783 345.652 354.093 346.084L352.455 347.034V345.998L354.093 345.048C354.438 344.789 354.697 344.616 354.783 344.53C354.955 344.357 354.955 344.184 354.955 343.925H352.455V342.975H354.955C354.955 342.803 354.955 342.63 354.783 342.457C354.697 342.285 354.524 342.112 354.093 341.939L352.455 340.903V339.867L354.093 340.903C354.783 341.248 355.128 341.68 355.3 342.112C355.387 341.853 355.559 341.594 355.645 341.507C355.818 341.421 356.163 341.248 356.766 340.989C356.939 340.903 357.111 340.817 357.111 340.73C357.198 340.644 357.198 340.558 357.198 340.385C357.198 340.299 357.198 340.212 357.198 340.126H357.974V340.212C357.974 340.558 357.974 340.817 357.888 340.989C357.888 341.162 357.715 341.248 357.629 341.421C357.456 341.507 357.198 341.68 356.766 341.853C356.163 342.026 355.818 342.198 355.732 342.371C355.645 342.457 355.559 342.716 355.559 342.975H357.974V343.925ZM353.144 351.351C352.8 351.006 352.627 350.66 352.455 350.401C352.368 350.056 352.282 349.711 352.282 349.279C352.282 348.674 352.455 348.243 352.713 347.897C353.058 347.552 353.403 347.466 353.921 347.466C354.179 347.466 354.438 347.466 354.611 347.638C354.869 347.725 355.042 347.897 355.128 348.07C355.3 348.329 355.387 348.502 355.473 348.761C355.473 348.933 355.559 349.279 355.645 349.624C355.732 350.401 355.818 350.919 355.904 351.265C356.077 351.265 356.163 351.265 356.163 351.265C356.594 351.265 356.853 351.178 356.939 351.006C357.198 350.747 357.284 350.401 357.284 349.97C357.284 349.538 357.198 349.192 357.025 348.933C356.939 348.761 356.594 348.588 356.249 348.502L356.335 347.552C356.766 347.638 357.111 347.811 357.284 347.984C357.543 348.156 357.715 348.502 357.888 348.847C357.974 349.192 358.06 349.624 358.06 350.056C358.06 350.574 357.974 350.919 357.888 351.265C357.801 351.524 357.629 351.783 357.456 351.869C357.284 352.042 357.111 352.128 356.853 352.215C356.68 352.215 356.421 352.215 355.99 352.215H354.697C353.834 352.215 353.317 352.301 353.058 352.301C352.886 352.301 352.627 352.387 352.455 352.56V351.524C352.627 351.438 352.886 351.351 353.144 351.351ZM355.214 351.265C355.042 350.919 354.955 350.401 354.869 349.711C354.783 349.365 354.697 349.106 354.611 348.933C354.611 348.761 354.524 348.674 354.352 348.588C354.179 348.502 354.093 348.415 353.921 348.415C353.662 348.415 353.489 348.502 353.317 348.674C353.144 348.933 353.058 349.192 353.058 349.538C353.058 349.883 353.144 350.229 353.231 350.488C353.403 350.833 353.662 351.006 353.921 351.092C354.093 351.265 354.438 351.265 354.869 351.265H355.214ZM357.974 353.683V354.632H355.645V357.223H357.974V358.173H352.455V357.223H354.869V354.632H352.455V353.683H357.974ZM353.144 363.181C352.8 362.836 352.627 362.49 352.455 362.231C352.368 361.886 352.282 361.54 352.282 361.195C352.282 360.59 352.455 360.072 352.713 359.727C353.058 359.468 353.403 359.295 353.921 359.295C354.179 359.295 354.438 359.295 354.611 359.468C354.869 359.554 355.042 359.727 355.128 359.9C355.3 360.159 355.387 360.331 355.473 360.59C355.473 360.763 355.559 361.109 355.645 361.454C355.732 362.231 355.818 362.749 355.904 363.095C356.077 363.095 356.163 363.095 356.163 363.095C356.594 363.095 356.853 363.008 356.939 362.836C357.198 362.663 357.284 362.231 357.284 361.799C357.284 361.368 357.198 361.022 357.025 360.849C356.939 360.59 356.594 360.418 356.249 360.331L356.335 359.382C356.766 359.468 357.111 359.641 357.284 359.813C357.543 359.986 357.715 360.331 357.888 360.677C357.974 361.022 358.06 361.454 358.06 361.972C358.06 362.404 357.974 362.749 357.888 363.095C357.801 363.354 357.629 363.613 357.456 363.699C357.284 363.872 357.111 363.958 356.853 364.044C356.68 364.044 356.421 364.044 355.99 364.044H354.697C353.834 364.044 353.317 364.131 353.058 364.131C352.886 364.217 352.627 364.217 352.455 364.39V363.354C352.627 363.267 352.886 363.267 353.144 363.181ZM355.214 363.095C355.042 362.749 354.955 362.317 354.869 361.627C354.783 361.195 354.697 360.936 354.611 360.763C354.611 360.59 354.524 360.504 354.352 360.418C354.179 360.331 354.093 360.245 353.921 360.245C353.662 360.245 353.489 360.331 353.317 360.59C353.144 360.763 353.058 361.022 353.058 361.368C353.058 361.713 353.144 362.058 353.231 362.317C353.403 362.663 353.662 362.836 353.921 363.008C354.093 363.095 354.438 363.095 354.869 363.095H355.214ZM352.455 368.621H360.043V370.089L354.611 371.902C354.179 372.075 353.748 372.161 353.489 372.247C353.834 372.334 354.179 372.507 354.783 372.679L360.043 374.493V375.874H352.455V374.924H358.836L352.455 372.679V371.729L358.922 369.571H352.455V368.621ZM355.214 377.169C356.249 377.169 356.939 377.428 357.456 378.033C357.888 378.465 358.06 379.069 358.06 379.76C358.06 380.537 357.801 381.141 357.284 381.659C356.853 382.091 356.163 382.35 355.3 382.35C354.524 382.35 354.007 382.264 353.576 382.005C353.144 381.832 352.886 381.487 352.627 381.055C352.455 380.71 352.282 380.278 352.282 379.76C352.282 378.983 352.541 378.378 353.058 377.86C353.576 377.428 354.266 377.169 355.214 377.169ZM355.214 378.119C354.438 378.119 353.921 378.292 353.576 378.551C353.231 378.896 353.058 379.328 353.058 379.76C353.058 380.192 353.231 380.623 353.576 380.882C353.921 381.228 354.524 381.4 355.214 381.4C355.904 381.4 356.421 381.228 356.766 380.882C357.111 380.623 357.284 380.192 357.284 379.76C357.284 379.328 357.111 378.896 356.766 378.551C356.421 378.292 355.904 378.119 355.214 378.119ZM357.974 383.473V384.941L353.489 386.409L357.974 388.049V389.344H352.455V388.395H356.853L352.455 386.754V385.977L357.111 384.423H352.455V383.473H357.974ZM357.974 396.08V397.029H352.455V396.08H357.974ZM357.974 390.812V391.762H355.818V392.971C355.818 393.748 355.645 394.353 355.3 394.698C355.042 395.13 354.611 395.389 354.093 395.389C353.662 395.389 353.231 395.216 352.886 394.871C352.541 394.525 352.455 393.921 352.455 393.144V390.812H357.974ZM353.144 391.762V392.712C353.144 393.316 353.231 393.748 353.403 394.007C353.576 394.266 353.748 394.439 354.093 394.439C354.352 394.439 354.524 394.353 354.697 394.094C354.955 393.921 355.042 393.489 355.042 392.885V391.762H353.144ZM357.974 398.497V399.447H353.231V401.606H357.974V402.556H353.231V404.628H357.974V405.578H352.455V398.497H357.974ZM350.299 406.959L351.161 406.873C351.075 407.132 351.075 407.305 351.075 407.391C351.075 407.65 351.075 407.823 351.161 407.909C351.247 408.082 351.333 408.168 351.506 408.255C351.592 408.341 351.765 408.427 352.196 408.514C352.196 408.514 352.282 408.6 352.368 408.6L357.974 406.528V407.478L354.783 408.686C354.352 408.859 353.921 408.945 353.489 409.032C353.921 409.205 354.352 409.291 354.697 409.464L357.974 410.672V411.622L352.282 409.464C351.678 409.291 351.333 409.118 351.075 408.945C350.73 408.773 350.557 408.6 350.385 408.341C350.212 408.168 350.212 407.909 350.212 407.564C350.212 407.391 350.212 407.219 350.299 406.959ZM357.974 412.572V416.976H352.455V416.026H357.198V413.522H354.438C353.748 413.522 353.317 413.522 353.144 413.522C352.972 413.436 352.8 413.349 352.627 413.177C352.455 412.918 352.368 412.658 352.368 412.313C352.368 412.14 352.368 411.881 352.455 411.536H353.231V411.968C353.231 412.14 353.231 412.313 353.231 412.399C353.317 412.486 353.403 412.572 353.489 412.572C353.576 412.572 353.834 412.572 354.266 412.572H357.974ZM357.974 423.625V424.575H352.455V423.625H357.974ZM357.974 418.444V419.394H355.818V420.516C355.818 421.293 355.645 421.898 355.3 422.329C355.042 422.761 354.611 422.934 354.093 422.934C353.662 422.934 353.231 422.761 352.886 422.416C352.541 422.07 352.455 421.552 352.455 420.775V418.444H357.974ZM353.144 419.394V420.343C353.144 420.948 353.231 421.38 353.403 421.639C353.576 421.898 353.748 421.984 354.093 421.984C354.352 421.984 354.524 421.898 354.697 421.725C354.955 421.552 355.042 421.121 355.042 420.43V419.394H353.144Z"
              fill="white"/>
        <path d="M263.396 368.653C263.69 368.653 263.984 368.947 263.984 369.241C263.984 369.634 263.69 369.928 263.396 369.928H254.478V372.575L248.5 369.241L254.478 366.006V368.653H263.396Z"
              fill="#D8D8D8"/>
        <path d="M263.396 513.647C263.69 513.647 263.984 513.941 263.984 514.235C263.984 514.628 263.69 514.922 263.396 514.922H254.478V517.569L248.5 514.235L254.478 511V513.647H263.396Z"
              fill="#D8D8D8"/>
        <path d="M166.422 593.896C166.422 594.19 166.128 594.484 165.833 594.484C165.441 594.484 165.147 594.19 165.147 593.896L165.147 584.978L162.5 584.978L165.833 579L169.069 584.978L166.422 584.978L166.422 593.896Z"
              fill="#D8D8D8"/>
        <path d="M263.396 148.745C263.69 148.745 263.984 148.941 263.984 149.333C263.984 149.726 263.69 149.922 263.396 149.922H254.478V152.667L248.5 149.333L254.478 146V148.745H263.396Z"
              fill="#D8D8D8"/>
        <path d="M70.0881 216.922C69.7941 216.922 69.5001 216.726 69.5001 216.333C69.5001 215.941 69.7941 215.745 70.0881 215.745L79.0061 215.745L79.0061 213L84.9841 216.333L79.0061 219.667L79.0061 216.922L70.0881 216.922Z"
              fill="#D8D8D8"/>
    </g>
    <defs>
        <clipPath id="clip0_1303_8875">
            <rect width="375" height="716" fill="white" transform="translate(0.5)"/>
        </clipPath>
    </defs>
</svg>
