<svg width="24" height="24" viewBox="0 0 24 24" fill="none" xmlns="http://www.w3.org/2000/svg">
    <path fill-rule="evenodd" clip-rule="evenodd"
          d="M12 23C18.0751 23 23 18.0751 23 12C23 5.92487 18.0751 1 12 1C5.92487 1 1 5.92487 1 12C1 18.0751 5.92487 23 12 23Z"
          stroke="#B09D35"/>
    <path d="M5.84747 12.7174C5.72144 12.6788 5.5874 12.6369 5.48649 12.5905C5.43992 12.5691 5.35107 12.5255 5.27267 12.448C5.17919 12.3556 5.06024 12.1663 5.12463 11.9212C5.1728 11.7379 5.30121 11.6356 5.34544 11.6018C5.40513 11.5563 5.47005 11.5209 5.52259 11.4945C5.62954 11.4408 5.77387 11.3813 5.93626 11.316L5.94093 11.3142L5.94093 11.3142L16.0608 7.36264L16.0708 7.35857C16.197 7.30718 16.325 7.25504 16.4292 7.22446C16.4836 7.20848 16.5631 7.18846 16.6519 7.18584C16.7431 7.18315 16.892 7.19777 17.0306 7.30378C17.1713 7.41132 17.2246 7.5539 17.245 7.6477C17.2645 7.73692 17.2632 7.82054 17.2602 7.87659C17.2545 7.98163 17.2336 8.11332 17.2134 8.23995C17.2123 8.24692 17.2112 8.25387 17.2101 8.2608C17.2101 8.26083 17.2101 8.26085 17.2101 8.26088L17.2092 8.26644L17.2073 8.27861L17.2048 8.29067L15.4447 16.684L5.84747 12.7174ZM5.84747 12.7174L8.26666 13.4903L8.4898 13.5616L8.68739 13.4358L12.1714 11.2174M5.84747 12.7174L12.1714 11.2174M12.1714 11.2174L9.25558 14.1087L9.06902 14.2937L9.11553 14.5523L9.39376 16.0991L9.39541 16.1083L9.3974 16.1174C9.40623 16.1578 9.41665 16.2138 9.43024 16.2868L9.43045 16.288C9.44332 16.3572 9.45847 16.4384 9.47469 16.5142C9.4899 16.5852 9.51055 16.6735 9.53753 16.7499C9.5495 16.7837 9.57386 16.8483 9.61691 16.9127C9.63829 16.9447 9.68141 17.0029 9.75299 17.0542C9.83107 17.1102 9.96166 17.1695 10.1252 17.1467C10.2443 17.1302 10.3275 17.0747 10.3476 17.0614L10.3488 17.0606C10.3818 17.0387 10.4084 17.0162 10.4255 17.0011C10.4608 16.9699 10.4948 16.9348 10.5228 16.9047C10.5805 16.8426 10.6467 16.7645 10.7086 16.6898C10.7749 16.6098 10.8343 16.5363 10.8847 16.4739C10.9393 16.4064 10.9835 16.3517 11.0149 16.3154L11.0222 16.307L11.029 16.2983L11.6571 15.5034L14.08 17.2738L14.0913 17.282L14.103 17.2896C14.2062 17.3565 14.3226 17.4313 14.4291 17.4796C14.5184 17.52 14.7577 17.6176 15.0129 17.4884C15.2447 17.3711 15.3238 17.1444 15.3517 17.0615C15.3883 16.9526 15.4172 16.8162 15.4446 16.6847L12.1714 11.2174ZM5.90383 11.6818C5.89718 11.6787 5.89807 11.6786 5.90418 11.6819L5.90383 11.6818ZM16.7218 8.18105C16.7218 8.18107 16.7212 8.18124 16.7199 8.18149L16.7218 8.18105ZM16.2619 7.81344C16.262 7.81341 16.262 7.81424 16.2619 7.81601C16.2619 7.81435 16.2619 7.81347 16.2619 7.81344ZM10.4804 16.4167C10.4802 16.4163 10.4801 16.4158 10.4799 16.4154L10.4811 16.4187C10.4811 16.4186 10.4808 16.4179 10.4804 16.4167Z"
          stroke="#B09D35"/>
</svg>
