<svg width="25" height="24" viewBox="0 0 25 24" fill="none" xmlns="http://www.w3.org/2000/svg">
    <path fill-rule="evenodd" clip-rule="evenodd"
          d="M12.5 23C18.5751 23 23.5 18.0751 23.5 12C23.5 5.92487 18.5751 1 12.5 1C6.42487 1 1.5 5.92487 1.5 12C1.5 18.0751 6.42487 23 12.5 23Z"
          stroke="white"/>
    <path d="M6.34796 12.7174C6.22193 12.6788 6.08789 12.6369 5.98698 12.5905C5.94041 12.5691 5.85156 12.5255 5.77316 12.448C5.67968 12.3556 5.56072 12.1663 5.62512 11.9212C5.67329 11.7379 5.8017 11.6356 5.84593 11.6018C5.90561 11.5563 5.97053 11.5209 6.02308 11.4945C6.13003 11.4408 6.27436 11.3813 6.43675 11.316L6.44141 11.3142L6.44142 11.3142L16.5613 7.36264L16.5713 7.35857C16.6975 7.30718 16.8255 7.25504 16.9297 7.22446C16.9841 7.20848 17.0636 7.18846 17.1524 7.18584C17.2436 7.18315 17.3925 7.19777 17.5311 7.30378C17.6718 7.41132 17.7251 7.5539 17.7455 7.6477C17.765 7.73692 17.7637 7.82054 17.7607 7.87659C17.755 7.98163 17.7341 8.11332 17.7139 8.23995C17.7128 8.24692 17.7117 8.25387 17.7106 8.2608C17.7106 8.26083 17.7106 8.26085 17.7106 8.26088L17.7097 8.26644L17.7078 8.27861L17.7052 8.29067L15.9452 16.684L6.34796 12.7174ZM6.34796 12.7174L8.76715 13.4903L8.99028 13.5616L9.18788 13.4358L12.6719 11.2174M6.34796 12.7174L12.6719 11.2174M12.6719 11.2174L9.75606 14.1087L9.56951 14.2937L9.61602 14.5523L9.89424 16.0991L9.8959 16.1083L9.89789 16.1174C9.90672 16.1578 9.91714 16.2138 9.93072 16.2868L9.93094 16.288C9.94381 16.3572 9.95895 16.4384 9.97517 16.5142C9.99038 16.5852 10.011 16.6735 10.038 16.7499C10.05 16.7837 10.0743 16.8483 10.1174 16.9127C10.1388 16.9447 10.1819 17.0029 10.2535 17.0542C10.3316 17.1102 10.4621 17.1695 10.6257 17.1467C10.7448 17.1302 10.828 17.0747 10.8481 17.0614L10.8493 17.0606C10.8822 17.0387 10.9089 17.0162 10.926 17.0011C10.9613 16.9699 10.9953 16.9348 11.0233 16.9047C11.081 16.8426 11.1472 16.7645 11.2091 16.6898C11.2754 16.6098 11.3348 16.5363 11.3852 16.4739C11.4398 16.4064 11.484 16.3517 11.5154 16.3154L11.5226 16.307L11.5295 16.2983L12.1576 15.5034L14.5805 17.2738L14.5918 17.282L14.6035 17.2896C14.7067 17.3565 14.8231 17.4313 14.9296 17.4796C15.0189 17.52 15.2582 17.6176 15.5134 17.4884C15.7452 17.3711 15.8243 17.1444 15.8522 17.0615C15.8888 16.9526 15.9177 16.8162 15.9451 16.6847L12.6719 11.2174ZM6.40432 11.6818C6.39767 11.6787 6.39856 11.6786 6.40467 11.6819L6.40432 11.6818ZM17.2223 8.18105C17.2223 8.18107 17.2216 8.18124 17.2204 8.18149L17.2223 8.18105ZM16.7624 7.81344C16.7624 7.81341 16.7625 7.81424 16.7624 7.81601C16.7624 7.81435 16.7624 7.81347 16.7624 7.81344ZM10.9809 16.4167C10.9807 16.4163 10.9806 16.4158 10.9804 16.4154L10.9816 16.4187C10.9816 16.4186 10.9813 16.4179 10.9809 16.4167Z"
          stroke="white"/>
</svg>
