<?xml version="1.0" encoding="UTF-8"?>
<svg width="24" height="24" viewBox="0 0 24 24" fill="none" xmlns="http://www.w3.org/2000/svg">
  <path d="M22.0717 2.93103C21.7516 2.65205 21.2795 2.5547 20.6554 2.63897L2.85288 7.31692C2.29972 7.40119 1.91027 7.58863 1.68451 7.87924C1.45876 8.16985 1.41502 8.50363 1.55329 8.88058C1.69157 9.25753 2.00075 9.53651 2.48084 9.71751L7.15879 11.3795L9.13918 18.1954C9.34399 18.8633 9.67777 19.1972 10.1405 19.1972C10.5612 19.1972 10.9069 18.9496 11.1764 18.4695L13.4615 14.8995L17.9577 18.2875C18.2709 18.5446 18.6167 18.6732 18.9942 18.6732C19.2637 18.6732 19.5114 18.5883 19.7371 18.4182C19.9628 18.2482 20.1175 18.0235 20.2012 17.7321L22.8587 4.34744C22.9867 3.67953 22.7392 3.20988 22.0717 2.93103ZM8.06598 11.0663L3.47647 9.40432L19.7371 5.08847L8.06598 11.0663ZM10.1405 17.5518L8.37822 11.3795L20.0486 5.40117L10.1405 17.5518Z" fill="currentColor"/>
</svg> 