<?xml version="1.0" encoding="UTF-8"?>
<svg width="24" height="24" viewBox="0 0 24 24" fill="none" xmlns="http://www.w3.org/2000/svg">
  <path d="M20.4054 3.5946C18.1607 1.34992 15.2054 0.0952148 12.0625 0.0952148C5.4875 0.0952148 0.125 5.45772 0.125 12.0327C0.125 14.1613 0.714286 16.2375 1.82143 18.0446L0 24.0952L6.19643 22.3137C7.94643 23.3256 9.98214 23.8613 12.0625 23.8613C18.6375 23.8613 24 18.4988 24 11.9238C24 8.78093 22.65 5.83927 20.4054 3.5946ZM12.0625 21.8375C10.2054 21.8375 8.39286 21.3256 6.84821 20.3661L6.47679 20.1494L2.79107 21.2137L3.87857 17.6399L3.63393 17.2446C2.57143 15.6375 2.01429 13.7779 2.01429 11.9238C2.01429 6.52522 6.5625 2.08522 12.0089 2.08522C14.6143 2.08522 17.0625 3.10772 18.9214 4.96665C20.7804 6.82558 21.8571 9.27379 21.8571 11.9238C21.9107 17.3232 17.3625 21.8375 12.0625 21.8375ZM17.5089 14.5565C17.2143 14.4137 15.75 13.6899 15.4821 13.6018C15.2143 13.5137 15.0214 13.4696 14.8286 13.7637C14.6357 14.0577 14.0625 14.7375 13.8964 14.9304C13.7304 15.1232 13.5643 15.1452 13.2696 15.0024C13.0286 14.8595 12.0625 14.5125 10.9286 13.4917C10.0179 12.6899 9.39643 11.7083 9.23036 11.4143C9.06429 11.1202 9.20893 10.9714 9.35357 10.8286C9.47679 10.7077 9.64286 10.5048 9.78571 10.3387C9.92857 10.1726 9.97321 10.0518 10.0625 9.85891C10.1518 9.66604 10.1071 9.49997 10.0411 9.35712C9.97321 9.21426 9.35357 7.75176 9.11786 7.16354C8.88214 6.59783 8.64643 6.66497 8.48036 6.64354C8.31429 6.64354 8.12143 6.64354 7.92857 6.64354C7.73571 6.64354 7.42321 6.71069 7.15536 7.00476C6.8875 7.29883 6.11786 8.02261 6.11786 9.48511C6.11786 10.9476 7.17679 12.3661 7.31964 12.559C7.4625 12.7518 9.375 15.7113 12.3125 16.9798C13.0286 17.2958 13.5857 17.4827 14.0179 17.6256C14.7321 17.8625 15.3857 17.8184 15.9054 17.7524C16.4786 17.6643 17.6786 17.0321 17.9143 16.3524C18.1714 15.6726 18.1714 15.0845 18.1054 14.9524C18.0393 14.8202 17.8036 14.7321 17.5089 14.5565Z" fill="currentColor"/>
</svg> 