<svg width="25" height="24" viewBox="0 0 25 24" fill="none" xmlns="http://www.w3.org/2000/svg">
    <path fill-rule="evenodd" clip-rule="evenodd"
          d="M6.90988 21.3023C6.84034 21.2618 6.75744 21.2509 6.67979 21.2721L2.44476 22.4276C2.22087 22.4887 2.01538 22.2833 2.07632 22.0594L3.22937 17.8224C3.2505 17.7448 3.23957 17.662 3.19903 17.5925L3.12124 17.4592C2.15494 15.8027 1.64725 13.9176 1.65041 11.9999C1.65041 6.00743 6.50794 1.1499 12.5004 1.1499C18.4929 1.1499 23.3504 6.00743 23.3504 11.9999C23.3504 17.9923 18.4918 22.8499 12.4993 22.8499C10.5824 22.853 8.69928 22.3457 7.04333 21.3801L6.90988 21.3023ZM4.26907 17.6848C4.29016 17.6072 4.27925 17.5244 4.23877 17.455L3.95717 16.9718C3.08311 15.4747 2.61742 13.7723 2.61742 11.9999C2.61742 10.0452 3.19705 8.13445 4.283 6.50921C5.36896 4.88396 6.91247 3.61723 8.71835 2.86921C10.5242 2.1212 12.5114 1.92548 14.4285 2.30682C16.3456 2.68815 18.1066 3.62942 19.4887 5.01157C20.8709 6.39373 21.8121 8.15471 22.1935 10.0718C22.5748 11.9889 22.3791 13.9761 21.6311 15.7819C20.8831 17.5878 19.6163 19.1313 17.9911 20.2173C16.3659 21.3032 14.4861 21.8828 12.5316 21.8828C10.4639 21.8828 9.05273 21.5138 7.05036 20.269C6.97891 20.2246 6.89162 20.2111 6.81045 20.2333L3.82277 21.0487C3.5989 21.1098 3.3934 20.9045 3.4543 20.6805L4.26907 17.6848Z"
          fill="white"/>
    <path d="M8.71323 7.05139C8.56556 7.04478 8.41679 7.04478 8.26912 7.0558L8.26802 7.05469C8.12571 7.06353 7.98665 7.10101 7.85918 7.16489C7.76331 7.21338 7.67515 7.28391 7.53519 7.41615C7.42437 7.52139 7.35289 7.61482 7.28485 7.70377C7.27239 7.72007 7.26003 7.73622 7.24757 7.75226C6.84022 8.28305 6.6215 8.93454 6.62605 9.60361C6.63637 10.1429 6.76068 10.674 6.99081 11.1618C7.44042 12.1558 8.18097 13.2083 9.16174 14.1835C9.19898 14.2206 9.23607 14.2577 9.27312 14.2947C9.47076 14.4923 9.66721 14.6887 9.87694 14.8734C11.0929 15.9439 12.5419 16.716 14.1086 17.1281C14.1086 17.1281 14.7257 17.2239 14.7346 17.2239C14.9103 17.2334 15.0852 17.2234 15.2601 17.2134C15.2891 17.2117 15.3182 17.2101 15.3473 17.2085C15.6681 17.1923 15.9815 17.1058 16.2652 16.955C16.4094 16.8805 16.5502 16.7996 16.6873 16.7126C16.7339 16.6805 16.7798 16.6474 16.825 16.6134C16.9558 16.519 17.0775 16.4128 17.1887 16.2961C17.2831 16.1982 17.3613 16.0858 17.4201 15.9632C17.5061 15.7836 17.592 15.4409 17.6273 15.1555C17.6526 14.9373 17.646 14.8183 17.6416 14.7444C17.6383 14.6265 17.5402 14.5042 17.4322 14.4524L16.7909 14.1648C16.7909 14.1648 15.8332 13.7471 15.2481 13.4793C15.1864 13.4518 15.1191 13.4397 15.053 13.4353C14.9776 13.4275 14.9014 13.436 14.8296 13.4601C14.7577 13.4843 14.6919 13.5235 14.6365 13.5752V13.573C14.6299 13.573 14.5571 13.6358 13.7593 14.6023C13.7136 14.6635 13.6508 14.7098 13.5788 14.7353C13.5068 14.7608 13.4289 14.7644 13.3548 14.7455C13.2832 14.7268 13.2127 14.7015 13.1444 14.6728C13.0567 14.6353 13.0058 14.6128 12.9558 14.5907C12.9279 14.5784 12.9002 14.5662 12.8667 14.5516L12.8612 14.5494C12.2308 14.2739 11.6468 13.9025 11.131 13.4474C11.0284 13.357 10.9312 13.2618 10.8341 13.1666C10.7998 13.133 10.7655 13.0995 10.731 13.0661C10.2682 12.6165 9.88906 12.1393 9.60695 11.6688L9.54193 11.5641C9.49565 11.4891 9.44496 11.3999 9.42953 11.3382C9.38765 11.1762 9.49675 11.0461 9.49675 11.0461C9.49675 11.0461 9.76454 10.753 9.88906 10.5932C9.99272 10.4617 10.0895 10.3248 10.1789 10.1833C10.3089 9.97389 10.3497 9.759 10.2814 9.59149C9.97281 8.83883 9.65324 8.08837 9.32484 7.34342C9.25982 7.19575 9.06697 7.08886 8.89175 7.06902C8.83225 7.06241 8.77274 7.0558 8.71323 7.05139Z"
          stroke="white"/>
</svg>
