<svg width="29" height="28" viewBox="0 0 29 28" fill="none" xmlns="http://www.w3.org/2000/svg">
<path fill-rule="evenodd" clip-rule="evenodd" d="M24.1805 23C24.3749 23 24.4916 22.8515 24.4916 22.7031V7.29691C24.4916 7.14845 24.336 7 24.1805 7H4.81112C4.61667 7 4.5 7.14846 4.5 7.29691V22.7031C4.5 22.8515 4.65556 23 4.81112 23H24.1805ZM20.4703 22.4804H22.8582L22.8582 11.5196L6.13337 11.5196L6.13338 22.4804H9.17949H14.3996H17.3165H20.4703ZM22.8582 7.51959V11H6.13337L6.13337 7.51959L22.8582 7.51959Z" fill="#7A7A7A"/>
<path d="M8.50317 5.59338C8.50317 5.27881 8.75818 5.0238 9.07275 5.0238C9.38732 5.0238 9.64233 5.27881 9.64233 5.59338V7.46196H8.50317V5.59338Z" fill="#7A7A7A"/>
<path d="M13.9304 5.59338C13.9304 5.27881 14.1854 5.0238 14.5 5.0238C14.8146 5.0238 15.0696 5.27881 15.0696 5.59338V7.46196H13.9304V5.59338Z" fill="#7A7A7A"/>
<rect x="8.64575" y="13.6869" width="1.7" height="1.7" rx="0.2" fill="#7A7A7A"/>
<rect x="8.64581" y="18.3005" width="1.7" height="1.7" rx="0.2" fill="#7A7A7A"/>
<rect x="13.6458" y="13.6869" width="1.7" height="1.7" rx="0.2" fill="#7A7A7A"/>
<rect x="13.6458" y="18.3005" width="1.7" height="1.7" rx="0.2" fill="#7A7A7A"/>
<rect x="18.6458" y="13.6869" width="1.7" height="1.7" rx="0.2" fill="#7A7A7A"/>
<rect x="18.6458" y="18.3005" width="1.7" height="1.7" rx="0.2" fill="#7A7A7A"/>
<path d="M19.335 5.59338C19.335 5.27881 19.59 5.0238 19.9046 5.0238C20.2192 5.0238 20.4742 5.27881 20.4742 5.59338V7.46196H19.335V5.59338Z" fill="#7A7A7A"/>
</svg>
