<svg
        width="24"
        height="24"
        viewBox="0 0 24 24"
        fill="none"
        xmlns="http://www.w3.org/2000/svg"
>
    <path
            d="M12 22L10.55 20.7052C5.4 16.1243 2 13.103 2 9.3951C2 6.37384 3.92 4 7 4C8.74 4 10.91 5.79455 12 7.05014C13.09 5.79455 15.26 4 17 4C20.08 4 22 6.37384 22 9.3951C22 13.103 18.6 16.1243 13.45 20.715L12 22Z"
            fill="currentColor"
    />
    <path
            d="M12 22L10.55 20.7052C5.4 16.1243 2 13.103 2 9.3951C2 6.37384 3.92 4 7 4C8.74 4 10.91 5.79455 12 7.05014C13.09 5.79455 15.26 4 17 4C20.08 4 22 6.37384 22 9.3951C22 13.103 18.6 16.1243 13.45 20.715L12 22Z"
            stroke="#1E1E1E"
    />
</svg>
