<svg
        width="25"
        height="24"
        viewBox="0 0 25 24"
        fill="none"
        xmlns="http://www.w3.org/2000/svg"
>
    <path
            d="M17.5 2H7.5C4.73858 2 2.5 4.23858 2.5 7V17C2.5 19.7614 4.73858 22 7.5 22H17.5C20.2614 22 22.5 19.7614 22.5 17V7C22.5 4.23858 20.2614 2 17.5 2Z"
            stroke="currentColor"
            stroke-linecap="round"
            stroke-linejoin="round"
    />
    <path
            d="M16.5 11.37C16.6234 12.2022 16.4812 13.0522 16.0937 13.799C15.7062 14.5458 15.0931 15.1514 14.3416 15.5297C13.5901 15.9079 12.7384 16.0396 11.9077 15.9059C11.0771 15.7723 10.3097 15.3801 9.71479 14.7852C9.11987 14.1902 8.72768 13.4229 8.59402 12.5922C8.46035 11.7615 8.59202 10.9099 8.97028 10.1584C9.34854 9.40685 9.95414 8.79374 10.7009 8.40624C11.4477 8.01874 12.2977 7.87658 13.13 8C13.9789 8.12588 14.7648 8.52146 15.3716 9.1283C15.9785 9.73515 16.3741 10.5211 16.5 11.37Z"
            stroke="currentColor"
            stroke-linecap="round"
            stroke-linejoin="round"
    />
    <path
            d="M19.4838 6.27998C19.5301 6.59207 19.4767 6.91081 19.3314 7.19085C19.1861 7.4709 18.9562 7.698 18.6744 7.83985C18.3926 7.9817 18.0732 8.03107 17.7617 7.98095C17.4502 7.93082 17.1624 7.78375 16.9393 7.56066C16.7162 7.33756 16.5692 7.0498 16.5191 6.7383C16.4689 6.42681 16.5183 6.10744 16.6601 5.82562C16.802 5.5438 17.0291 5.31388 17.3091 5.16857C17.5892 5.02325 17.9079 4.96995 18.22 5.01623C18.5384 5.06343 18.8331 5.21177 19.0607 5.43934C19.2882 5.66691 19.4366 5.96163 19.4838 6.27998Z"
            fill="currentColor"
    />
</svg>
