<svg width="40" height="24" viewBox="0 0 40 24" fill="none" xmlns="http://www.w3.org/2000/svg">
    <rect width="40" height="24" rx="2" fill="#ECECEC"/>
    <path d="M24.317 4.13965H15.6572V19.8613H24.317V4.13965Z" fill="#FF5A00"/>
    <path d="M16.2338 12C16.2338 8.80583 17.7198 5.97087 20 4.13916C18.3219 2.80583 16.205 2 13.8959 2C8.42594 2 4 6.47249 4 12C4 17.5275 8.42594 22 13.8959 22C16.205 22 18.3219 21.1942 20 19.8608C17.7166 18.055 16.2338 15.1942 16.2338 12Z"
          fill="#EB001B"/>
    <path d="M36 12C36 17.5275 31.5741 22 26.1041 22C23.795 22 21.6781 21.1942 20 19.8608C22.309 18.0259 23.7662 15.1942 23.7662 12C23.7662 8.80583 22.2802 5.97087 20 4.13916C21.6749 2.80583 23.7918 2 26.1009 2C31.5741 2 36 6.50162 36 12Z"
          fill="#F79E1B"/>
</svg>
