<svg width="32" height="32" viewBox="0 0 32 32" fill="none" xmlns="http://www.w3.org/2000/svg">
<path d="M20.3179 8.13965H11.6582V23.8613H20.3179V8.13965Z" fill="#FF5A00"/>
<path d="M12.2338 16C12.2338 12.8058 13.7198 9.97087 16 8.13916C14.3219 6.80583 12.205 6 9.89592 6C4.42594 6 0 10.4725 0 16C0 21.5275 4.42594 26 9.89592 26C12.205 26 14.3219 25.1942 16 23.8608C13.7166 22.055 12.2338 19.1942 12.2338 16Z" fill="#EB001B"/>
<path d="M32 16C32 21.5275 27.5741 26 22.1041 26C19.795 26 17.6781 25.1942 16 23.8608C18.309 22.0259 19.7662 19.1942 19.7662 16C19.7662 12.8058 18.2802 9.97087 16 8.13916C17.6749 6.80583 19.7918 6 22.1009 6C27.5741 6 32 10.5016 32 16Z" fill="#F79E1B"/>
</svg>
