<svg width="29" height="28" viewBox="0 0 29 28" fill="none" xmlns="http://www.w3.org/2000/svg">
<path d="M6.45023 20.763C6.54298 20.624 6.69905 20.5405 6.86616 20.5405H23.7511C23.9109 20.5405 24.0062 20.7186 23.9175 20.8515L23.2998 21.7774C23.207 21.9164 23.051 21.9999 22.8838 21.9999H5.99887C5.8391 21.9999 5.74383 21.8218 5.8325 21.6889L6.45023 20.763Z" fill="#7A7A7A"/>
<path d="M6.45023 13.493C6.54298 13.354 6.69905 13.2705 6.86616 13.2705H23.7511C23.9109 13.2705 24.0062 13.4486 23.9175 13.5815L23.2998 14.5074C23.207 14.6464 23.051 14.7299 22.8838 14.7299H5.99887C5.8391 14.7299 5.74383 14.5518 5.8325 14.4189L6.45023 13.493Z" fill="#7A7A7A"/>
<path d="M6.45023 6.22542C6.54298 6.08641 6.69905 6.00293 6.86616 6.00293H23.7511C23.9109 6.00293 24.0062 6.18103 23.9175 6.31393L23.2998 7.23979C23.207 7.3788 23.051 7.46228 22.8838 7.46228H5.99887C5.8391 7.46228 5.74383 7.28418 5.8325 7.15128L6.45023 6.22542Z" fill="#7A7A7A"/>
</svg>
