<svg width="28" height="28" viewBox="0 0 28 28" fill="none" xmlns="http://www.w3.org/2000/svg">
<rect x="11.6665" y="3.5" width="8.16667" height="8.16667" transform="rotate(90 11.6665 3.5)" stroke="#AFAEAE" stroke-linecap="round"/>
<rect width="1.16667" height="1.16667" transform="matrix(-1 0 0 1 8.1665 7)" stroke="#AFAEAE" stroke-linecap="round"/>
<rect x="11.6665" y="16.3359" width="8.16667" height="8.16667" transform="rotate(90 11.6665 16.3359)" stroke="#AFAEAE" stroke-linecap="round"/>
<rect x="7" y="19.8359" width="1.16667" height="1.16667" stroke="#AFAEAE" stroke-linecap="round"/>
<rect x="16.3335" y="23.3359" width="1.16667" height="1.16667" stroke="#AFAEAE" stroke-linecap="round"/>
<rect x="19.8335" y="19.8359" width="1.16667" height="1.16667" stroke="#AFAEAE" stroke-linecap="round"/>
<rect x="16.3335" y="16.3359" width="1.16667" height="1.16667" stroke="#AFAEAE" stroke-linecap="round"/>
<rect x="23.3335" y="19.8359" width="1.16667" height="1.16667" stroke="#AFAEAE" stroke-linecap="round"/>
<rect x="23.3335" y="16.3359" width="1.16667" height="1.16667" stroke="#AFAEAE" stroke-linecap="round"/>
<rect x="23.3335" y="23.3359" width="1.16667" height="1.16667" stroke="#AFAEAE" stroke-linecap="round"/>
<rect x="24.5" y="3.5" width="8.16667" height="8.16667" transform="rotate(90 24.5 3.5)" stroke="#AFAEAE" stroke-linecap="round"/>
<rect x="19.8335" y="7" width="1.16667" height="1.16667" stroke="#AFAEAE" stroke-linecap="round"/>
</svg>
