<svg width="29" height="28" viewBox="0 0 29 28" fill="none" xmlns="http://www.w3.org/2000/svg">
    <path fill-rule="evenodd" clip-rule="evenodd"
          d="M5.8 15C5.63431 15 5.5 15.1343 5.5 15.3V22.7C5.5 22.8657 5.63431 23 5.8 23H13.2C13.3657 23 13.5 22.8657 13.5 22.7V15.3C13.5 15.1343 13.3657 15 13.2 15H5.8ZM7.3 15.6C7.13431 15.6 7 15.7343 7 15.9V22.1C7 22.2657 7.13431 22.4 7.3 22.4H12.5867C12.7524 22.4 12.8867 22.2657 12.8867 22.1V15.9C12.8867 15.7343 12.7524 15.6 12.5867 15.6H7.3Z"
          fill="currentColor"/>
    <path fill-rule="evenodd" clip-rule="evenodd"
          d="M5.8 5C5.63431 5 5.5 5.13431 5.5 5.3V12.7C5.5 12.8657 5.63431 13 5.8 13H13.2C13.3657 13 13.5 12.8657 13.5 12.7V5.3C13.5 5.13431 13.3657 5 13.2 5H5.8ZM7.3 5.6C7.13431 5.6 7 5.73431 7 5.9V12.1C7 12.2657 7.13431 12.4 7.3 12.4H12.5867C12.7524 12.4 12.8867 12.2657 12.8867 12.1V5.9C12.8867 5.73431 12.7524 5.6 12.5867 5.6H7.3Z"
          fill="currentColor"/>
    <path fill-rule="evenodd" clip-rule="evenodd"
          d="M23.2 23C23.3657 23 23.5 22.8657 23.5 22.7L23.5 15.3C23.5 15.1343 23.3657 15 23.2 15L15.8 15C15.6343 15 15.5 15.1343 15.5 15.3L15.5 22.7C15.5 22.8657 15.6343 23 15.8 23L23.2 23ZM21.7 22.4C21.8657 22.4 22 22.2657 22 22.1L22 15.9C22 15.7343 21.8657 15.6 21.7 15.6L16.4133 15.6C16.2476 15.6 16.1133 15.7343 16.1133 15.9L16.1133 22.1C16.1133 22.2657 16.2476 22.4 16.4133 22.4L21.7 22.4Z"
          fill="currentColor"/>
    <path fill-rule="evenodd" clip-rule="evenodd"
          d="M23.2 13C23.3657 13 23.5 12.8657 23.5 12.7L23.5 5.3C23.5 5.13431 23.3657 5 23.2 5L15.8 5C15.6343 5 15.5 5.13432 15.5 5.3L15.5 12.7C15.5 12.8657 15.6343 13 15.8 13L23.2 13ZM21.7 12.4C21.8657 12.4 22 12.2657 22 12.1L22 5.9C22 5.73432 21.8657 5.6 21.7 5.6L16.4133 5.6C16.2476 5.6 16.1133 5.73432 16.1133 5.9L16.1133 12.1C16.1133 12.2657 16.2476 12.4 16.4133 12.4L21.7 12.4Z"
          fill="currentColor"/>
</svg>