<svg width="29" height="28" viewBox="0 0 29 28" fill="none" xmlns="http://www.w3.org/2000/svg">
    <path fill-rule="evenodd" clip-rule="evenodd"
          d="M17.8988 21.307C17.6321 23.1287 16.1845 24 14.394 24C12.6036 23.9604 11.1179 23.1287 10.8512 21.307H8.14643H4.375C5.02262 20.713 6.0131 19.9209 6.39405 17.9012C6.66071 16.7131 6.58452 15.6834 6.58452 14.4161C6.54643 12.5944 6.47024 10.7727 6.88929 9.18857C7.84167 5.86194 11.194 3.961 14.356 4.00061C17.556 3.961 20.9083 5.86194 21.8226 9.18857C22.2798 10.7727 22.2036 12.5944 22.1655 14.4161C22.1655 15.6834 22.0893 16.7131 22.356 17.9012C22.7369 19.9209 23.7274 20.713 24.375 21.307H20.6036H17.8988ZM12.3369 21.307C12.375 22.4951 13.0226 23.6436 14.394 23.6436C15.7274 23.6436 16.3369 22.5743 16.375 21.307H15.8417H14.6988H14.0131H12.9083H12.3369ZM14.0131 20.8714H14.6988H21.6702C20.794 19.4853 20.6417 17.3071 20.6417 15.3666C20.6798 13.7033 20.6798 12.0796 20.6798 11.0103C20.6798 8.55492 19.4607 6.49558 17.7083 5.3867C15.6893 4.07981 13.0607 4.07981 11.0417 5.3867C9.28929 6.49558 8.07024 8.55492 8.07024 11.0103C8.07024 12.0796 8.07024 13.7033 8.07024 15.3666C8.07024 17.3071 7.95595 19.4853 7.07976 20.8714H14.0131Z"
          fill="currentColor"/>
</svg>
