<svg width="29" height="28" viewBox="0 0 29 28" fill="none" xmlns="http://www.w3.org/2000/svg">
    <path fill-rule="evenodd" clip-rule="evenodd"
          d="M14.2806 22.9946L14.2207 22.9973C14.1471 23 14.0736 23 14 23C13.9264 23 13.8529 23 13.7766 22.9973L13.7194 22.9946C13.699 22.9946 13.6778 22.994 13.6567 22.9933C13.6356 22.9926 13.6145 22.992 13.5941 22.992C8.53484 22.7912 4.5 18.8406 4.5 13.9987C4.5 9.02825 8.7528 5 14 5C19.2472 5 23.5 9.02825 23.5 13.9987C23.5 18.8406 19.4624 22.7912 14.4032 22.992C14.3828 22.992 14.3623 22.9926 14.3419 22.9933C14.3215 22.994 14.301 22.9946 14.2806 22.9946ZM19.9969 19.5494L19.9991 19.5526C21.1815 18.059 21.8953 16.1185 21.8953 13.9987C21.8953 9.28253 18.3618 5.4577 14 5.4577C9.63823 5.4577 6.10195 9.28253 6.10195 13.9987C6.10195 16.1185 6.81574 18.059 7.99814 19.5526C7.99637 19.555 7.99989 19.5501 7.99814 19.5526C9.23264 21.1143 10.9842 22.1809 12.9611 22.4628C13.1953 22.4987 13.4328 22.5228 13.6731 22.5343C13.6884 22.5343 13.703 22.535 13.7173 22.5357C13.7309 22.5363 13.7442 22.537 13.7575 22.537L13.8093 22.5396C13.8403 22.5396 13.8713 22.5403 13.9026 22.5409C13.9346 22.5416 13.967 22.5423 14 22.5423C14.0627 22.5423 14.1253 22.5423 14.1907 22.5396L14.2425 22.537L14.3242 22.5343C14.5415 22.5239 14.7564 22.5033 14.9686 22.4729C16.9741 22.2078 18.7472 21.1283 19.9969 19.5494Z"
          fill="currentColor"/>
    <circle cx="11.5" cy="6" r="2" fill="currentColor"/>
    <circle cx="8.5" cy="21" r="2" fill="currentColor"/>
    <circle cx="22.5" cy="17" r="2" fill="currentColor"/>
</svg>
