<svg width="29" height="28" viewBox="0 0 29 28" fill="none" xmlns="http://www.w3.org/2000/svg">
    <path fill-rule="evenodd" clip-rule="evenodd"
          d="M0.625 23V22.6495L1.93409 22.4742C2.04318 22.4742 2.15227 22.3691 2.225 22.1588L7.60682 6H9.27954L14.9886 22.5093L16.2614 22.6144C16.2977 22.7196 16.3705 22.8598 16.4068 22.9649L11.7159 23C11.7159 22.8247 11.7159 22.7196 11.7523 22.6495L13.025 22.4742C13.1705 22.4742 13.2432 22.3691 13.2432 22.1938L11.8614 18.233H4.07955L2.77045 22.4392L5.64318 22.6144C5.64318 22.6144 5.64318 22.7196 5.64318 22.9649L0.625 23ZM21.0614 6H22.9159C22.8795 6.14021 22.8432 6.28041 22.8068 6.31546C22.4432 6.35052 22.0432 6.38557 21.6432 6.42062C21.3886 6.42062 21.3886 6.56082 21.4614 6.80619L26.9159 22.5093L28.625 22.6144C28.625 22.6144 28.625 22.7196 28.625 22.9649L23.6432 23C23.6432 22.8247 23.6432 22.7196 23.6432 22.6495L24.9523 22.4742C25.0977 22.4742 25.1341 22.3691 25.1341 22.1938L24.0432 19.0041L22.5886 14.7979L19.6795 6.66598C19.2795 7.85773 15.6432 18.233 15.6432 18.233H15.4614C13.9341 13.8165 13.5341 12.6598 12.4068 9.36495C12.1523 8.66392 11.8977 7.89278 11.5705 6.98144V6.94639C11.4614 6.63093 11.3159 6.31546 11.2068 6L14.8068 6.03505C14.8432 6.24536 14.8432 6.38557 14.8432 6.38557L13.2432 6.49072C13.1341 6.49072 13.0614 6.52577 13.0977 6.66598L13.2068 6.98144L16.1159 15.3588V15.3938L19.5341 6H21.0614ZM7.78864 6.45567L4.225 17.7423H11.6795L7.78864 6.45567Z"
          fill="currentColor"/>
</svg>
