<svg width="29" height="28" viewBox="0 0 29 28" fill="none" xmlns="http://www.w3.org/2000/svg">
    <path fill-rule="evenodd" clip-rule="evenodd"
          d="M15.8718 4.42574C16.4617 5.21782 16.3831 6.08911 16.3831 7.15842C16.3831 7.59406 16.3831 8.0297 16.3831 8.50495C16.3831 8.74257 16.4224 8.82178 16.6583 8.82178C17.0123 8.82178 17.3663 8.82178 17.6809 8.82178C17.9168 8.82178 17.9955 8.78218 17.9955 8.54455V7.83168V7.39604C17.9955 7.31683 17.9955 7.23762 17.9955 7.15842V7.07921C17.9955 6.0495 18.0348 5.17822 17.3663 4.30693C16.6583 3.39604 15.3605 3 14.102 3C12.8829 3 11.585 3.39604 10.8771 4.30693C10.1692 5.17822 10.2086 6.0495 10.2479 7.07921V7.15842C10.2479 7.23762 10.2479 7.31683 10.2479 7.39604V7.83168C10.2479 8.06931 10.2479 8.26733 10.2479 8.50495C10.2479 8.70297 10.2872 8.82178 10.5625 8.82178C10.8771 8.82178 11.1918 8.82178 11.5064 8.82178C11.8603 8.82178 11.8603 8.66337 11.8603 8.50495V7.15842C11.821 6.08911 11.7817 5.21782 12.3716 4.42574C12.8435 3.75248 13.4728 3.51485 14.102 3.47525C14.7313 3.47525 15.3999 3.75248 15.8718 4.42574ZM5.80382 22.4851L5.88247 21.7723L6.39374 17.3762L7.45559 7.83168H9.61863V7.39604C9.18603 7.39604 7.41626 7.39604 6.98366 7.39604C5.72516 7.39604 5.84314 7.27723 5.76449 7.95049L4.19137 22.0891C4.19137 22.2475 4.07338 22.7624 4.15204 22.8812C4.19137 23 4.30935 23 4.46666 23H12.057H16.2257H23.816C23.934 23 24.052 23 24.0913 22.8812C24.17 22.7624 24.0913 22.2475 24.052 22.0891L22.4789 7.95049C22.4002 7.27723 22.5182 7.39604 21.2991 7.39604C20.8664 7.39604 19.0574 7.39604 18.6248 7.39604V7.83168H20.7878L21.9676 18.3267L22.3216 21.495L22.4396 22.4851H5.80382ZM15.7538 7.83168V7.39604C15.1639 7.39604 15.4392 7.39604 14.8493 7.39604C13.7874 7.39604 13.5514 7.39604 12.4503 7.39604V7.83168C13.5514 7.83168 13.7874 7.83168 14.8493 7.83168C15.4392 7.83168 15.1639 7.83168 15.7538 7.83168Z"
          fill="currentColor"/>
</svg>
