<svg width="28" height="28" viewBox="0 0 28 28" fill="none" xmlns="http://www.w3.org/2000/svg">
<path fill-rule="evenodd" clip-rule="evenodd" d="M14.8376 2.40959L16.7485 3.97158L17.1957 4.33712L17.7423 4.78393C17.9594 4.96141 17.9868 5.11314 17.9079 5.26247C17.8924 5.29474 17.8763 5.321 17.8635 5.3499C17.2447 6.6161 17.113 7.79662 18.2147 8.69716C19.4134 9.67698 20.3447 9.24005 21.436 8.46704C21.4618 8.44874 21.4871 8.42441 21.5189 8.40538C21.7173 8.27506 21.8229 8.11946 22.3057 8.51414L22.8588 8.96625L23.1343 9.19141L25.1968 10.8773C25.3718 11.0204 25.3931 11.2853 25.2442 11.4674L22.179 15.2172L21.8565 15.6118L13.7597 25.5172C13.6109 25.6993 13.347 25.7311 13.172 25.588L11.1095 23.9021L10.8341 23.677L10.281 23.2249C9.79813 22.8302 9.92962 22.6958 10.0179 22.4754C10.0302 22.4405 10.0462 22.4142 10.0618 22.3819C10.6023 21.1586 10.8452 20.159 9.64654 19.1792C8.60271 18.3259 7.41412 18.6426 6.29631 19.5008C6.27054 19.5191 6.248 19.5401 6.21947 19.5618C6.0888 19.6687 5.93466 19.6721 5.71754 19.4946L5.17093 19.0478L4.72373 18.6823L2.81284 17.1203C2.63785 16.9773 2.61655 16.7123 2.7654 16.5302C2.7654 16.5302 2.7654 16.5302 2.7654 16.5302C2.7654 16.5302 7.45305 10.7955 10.8622 6.62485C10.9882 6.47077 11.1847 6.23031 11.1847 6.23031C11.1847 6.23031 11.1847 6.23031 11.1847 6.23031L14.2499 2.48047C14.3987 2.29837 14.6626 2.26655 14.8376 2.40959ZM20.0531 13.232L20.7059 13.7655C20.8769 13.9053 21.1289 13.88 21.2687 13.709L23.8161 10.5926C23.8905 10.5015 23.8799 10.369 23.7924 10.2975L22.8818 9.55318C22.7911 9.47902 22.7283 9.48962 22.6593 9.53443C21.3275 10.3303 19.5068 10.2034 17.9942 8.96693C16.6299 7.85175 15.9885 5.9661 16.5123 4.49857C16.537 4.42873 16.4993 4.33601 16.4312 4.28038L15.5303 3.54399C15.4428 3.47247 15.3109 3.48838 15.2365 3.57943L12.6891 6.69584C12.5492 6.86689 12.5746 7.11888 12.7456 7.2587L13.3984 7.79226C13.4761 7.85584 13.4858 7.97626 13.4197 8.05719L12.9073 8.68401C12.8411 8.76494 12.724 8.77603 12.6462 8.71246L11.9934 8.17889C11.8224 8.03908 11.5704 8.0644 11.4306 8.23544L4.03865 17.2785C3.96422 17.3695 3.97487 17.502 4.06237 17.5735L4.96325 18.3099C5.0313 18.3655 5.12967 18.3841 5.19322 18.346C6.52446 17.5441 8.50277 17.7942 9.86706 18.9094C11.3797 20.1459 11.8663 21.9049 11.3512 23.3684C11.321 23.445 11.3231 23.5086 11.4138 23.5827L12.3244 24.3271C12.4119 24.3986 12.5439 24.3827 12.6183 24.2916L20.0102 15.2486C20.15 15.0775 20.1247 14.8255 19.9537 14.6857L19.3009 14.1521C19.2232 14.0886 19.214 13.9742 19.2801 13.8932L19.7925 13.2664C19.8586 13.1855 19.9753 13.1684 20.0531 13.232ZM17.2118 10.9094L19.0842 12.4399C19.1619 12.5035 19.1716 12.6239 19.1055 12.7049L18.5931 13.3317C18.5269 13.4126 18.4098 13.4237 18.332 13.3601L16.4596 11.8296C16.3819 11.7661 16.3694 11.649 16.4356 11.5681L16.9479 10.9413C17.0141 10.8603 17.134 10.8459 17.2118 10.9094ZM14.3673 8.58428L16.2396 10.1148C16.3174 10.1783 16.3271 10.2988 16.2609 10.3797L15.7486 11.0065C15.6824 11.0874 15.5652 11.0985 15.4875 11.035L13.6151 9.50448C13.5373 9.44091 13.5281 9.32651 13.5943 9.24557L14.1067 8.61876C14.1728 8.53782 14.2895 8.52071 14.3673 8.58428Z" fill="white"/>
</svg>
