<svg width="29" height="28" viewBox="0 0 29 28" fill="none" xmlns="http://www.w3.org/2000/svg">
    <path fill-rule="evenodd" clip-rule="evenodd"
          d="M18.0238 21.307C17.7571 23.1287 16.3095 24 14.519 24C12.7286 23.9604 11.2429 23.1287 10.9762 21.307H8.27143H4.5C5.14762 20.713 6.1381 19.9209 6.51905 17.9012C6.78571 16.7131 6.70952 15.6834 6.70952 14.4161C6.67143 12.5944 6.59524 10.7727 7.01429 9.18857C7.96667 5.86194 11.319 3.961 14.481 4.00061C17.681 3.961 21.0333 5.86194 21.9476 9.18857C22.4048 10.7727 22.3286 12.5944 22.2905 14.4161C22.2905 15.6834 22.2143 16.7131 22.481 17.9012C22.8619 19.9209 23.8524 20.713 24.5 21.307H20.7286H18.0238ZM12.4619 21.307C12.5 22.4951 13.1476 23.6436 14.519 23.6436C15.8524 23.6436 16.4619 22.5743 16.5 21.307H15.9667H14.8238H14.1381H13.0333H12.4619ZM14.1381 20.8714H14.8238H21.7952C20.919 19.4853 20.7667 17.3071 20.7667 15.3666C20.8048 13.7033 20.8048 12.0796 20.8048 11.0103C20.8048 8.55492 19.5857 6.49558 17.8333 5.3867C15.8143 4.07981 13.1857 4.07981 11.1667 5.3867C9.41429 6.49558 8.19524 8.55492 8.19524 11.0103C8.19524 12.0796 8.19524 13.7033 8.19524 15.3666C8.19524 17.3071 8.08095 19.4853 7.20476 20.8714H14.1381Z"
          fill="currentColor"/>
</svg>
