<svg
        width="29"
        height="28"
        viewBox="0 0 29 28"
        fill="none"
        xmlns="http://www.w3.org/2000/svg"
>
    <path
            d="M4.5 23.7031V18.2C4.5 18.0895 4.58954 18 4.7 18H5.85236C5.96282 18 6.05236 18.0895 6.05236 18.2V23.2804C6.05236 23.3909 6.1419 23.4804 6.25236 23.4804H10.3C10.4105 23.4804 10.5 23.57 10.5 23.6804V23.8C10.5 23.9105 10.4105 24 10.3 24H4.79569C4.64784 24 4.5 23.8515 4.5 23.7031Z"
            fill="currentColor"
    />
    <path
            d="M18.5 23.8C18.5 23.9105 18.5895 24 18.7 24H24.2043C24.3891 24 24.5 23.8515 24.5 23.7031V18.2C24.5 18.0895 24.4105 18 24.3 18H23.1476C23.0372 18 22.9476 18.0895 22.9476 18.2V23.2804C22.9476 23.3909 22.8581 23.4804 22.7476 23.4804H18.7C18.5895 23.4804 18.5 23.57 18.5 23.6804V23.8Z"
            fill="currentColor"
    />
    <path
            d="M4.5 4.29691V9.8C4.5 9.91046 4.58954 10 4.7 10H5.85236C5.96282 10 6.05236 9.91046 6.05236 9.8V4.71959C6.05236 4.60913 6.1419 4.51959 6.25236 4.51959H10.3C10.4105 4.51959 10.5 4.43005 10.5 4.31959V4.2C10.5 4.08954 10.4105 4 10.3 4H4.79569C4.64784 4 4.5 4.14845 4.5 4.29691Z"
            fill="currentColor"
    />
    <path
            d="M18.5 4.2C18.5 4.08954 18.5895 4 18.7 4H24.2043C24.3891 4 24.5 4.14845 24.5 4.29691V9.8C24.5 9.91046 24.4105 10 24.3 10H23.1476C23.0372 10 22.9476 9.91046 22.9476 9.8V4.71959C22.9476 4.60913 22.8581 4.51959 22.7476 4.51959H18.7C18.5895 4.51959 18.5 4.43005 18.5 4.31959V4.2Z"
            fill="currentColor"
    />
    <path
            fill-rule="evenodd"
            clip-rule="evenodd"
            d="M8 20.5V20.2113L9.07834 20.067C9.1682 20.067 9.25806 19.9804 9.31797 19.8072L13.7512 6.5H15.129L19.8318 20.0959L20.8802 20.1825C20.9101 20.2691 20.97 20.3845 21 20.4711L17.1359 20.5C17.1359 20.3557 17.1359 20.2691 17.1659 20.2113L18.2143 20.067C18.3341 20.067 18.394 19.9804 18.394 19.8361L17.2558 16.5742H10.8456L9.76728 20.0381L12.1336 20.1825C12.1336 20.1825 12.1336 20.2691 12.1336 20.4711L8 20.5ZM13.9009 6.87526L10.9654 16.1701H17.106L13.9009 6.87526Z"
            fill="currentColor"
    />
</svg>
