<svg width="44" height="15" viewBox="0 0 44 15" fill="none" xmlns="http://www.w3.org/2000/svg">
    <g clip-path="url(#clip0_2793_58903)">
        <path d="M28.6523 0.0224609C25.5314 0.0224609 22.7423 1.66392 22.7423 4.69595C22.7423 8.17351 27.6887 8.41368 27.6887 10.1609C27.6887 10.8966 26.858 11.5551 25.4386 11.5551C23.4247 11.5551 21.9195 10.635 21.9195 10.635L21.2753 13.6952C21.2753 13.6952 23.0093 14.4724 25.3114 14.4724C28.7236 14.4724 31.4089 12.7506 31.4089 9.66631C31.4089 5.99144 26.4418 5.75841 26.4418 4.13704C26.4418 3.56073 27.1238 2.9295 28.5388 2.9295C30.1356 2.9295 31.438 3.59867 31.438 3.59867L32.0685 0.643421C32.0685 0.643421 30.6508 0.0224609 28.6519 0.0224609H28.6523ZM0.0976527 0.245667L0.0219727 0.691633C0.0219727 0.691633 1.33493 0.935374 2.51765 1.42196C4.04049 1.97953 4.14873 2.30452 4.40525 3.31252L7.19969 14.242H10.9459L16.7169 0.245667H12.9795L9.27121 9.76184L7.75805 1.69517C7.61945 0.771987 6.91633 0.245221 6.05613 0.245221H0.0980927L0.0976527 0.245667ZM18.2199 0.245667L15.2882 14.242H18.8522L21.7734 0.245667H18.2199ZM38.0974 0.245667C37.238 0.245667 36.7826 0.712614 36.4487 1.52821L31.2272 14.242H34.9646L35.6875 12.1229H40.2406L40.6802 14.242H43.978L41.1012 0.245667H38.0974ZM38.5836 4.02723L39.6915 9.27927H36.7237L38.584 4.02723H38.5836Z"
              fill="#1434CB"/>
    </g>
    <defs>
        <clipPath id="clip0_2793_58903">
            <rect width="44" height="14.4941" fill="white"/>
        </clipPath>
    </defs>
</svg>
