<svg width="78" height="14" viewBox="0 0 78 14" fill="none" xmlns="http://www.w3.org/2000/svg">
<path d="M7.065 7.01L5.3775 2.6375C5.3275 2.5075 5.275 2.3575 5.22 2.1875C5.165 2.0125 5.1125 1.8275 5.0625 1.6325C4.9575 2.0375 4.85 2.375 4.74 2.645L3.0525 7.01H7.065ZM10.095 11H8.97C8.84 11 8.735 10.9675 8.655 10.9025C8.575 10.8375 8.515 10.755 8.475 10.655L7.47 8.06H2.6475L1.6425 10.655C1.6125 10.745 1.555 10.825 1.47 10.895C1.385 10.965 1.2775 11 1.1475 11H0.03L4.3275 0.252499H5.7975L10.095 11ZM15.7628 3.7775C15.8328 3.6675 15.9253 3.5775 16.0403 3.5075C16.1553 3.4375 16.2778 3.4025 16.4078 3.4025H17.4503L15.4778 6.2975C15.3578 6.4825 15.2328 6.635 15.1028 6.755C14.9728 6.87 14.8128 6.96 14.6228 7.025C14.8628 7.09 15.0653 7.1925 15.2303 7.3325C15.3953 7.4675 15.5428 7.6425 15.6728 7.8575L17.6678 11H16.7378C16.4978 11 16.3128 10.96 16.1828 10.88C16.0528 10.8 15.9403 10.685 15.8453 10.535L14.3678 8.1725C14.1328 7.7825 13.7803 7.5875 13.3103 7.5875H12.4928V11.0075H11.1503V3.4025H12.4928V6.6875H13.2128C13.6128 6.6875 13.9253 6.5175 14.1503 6.1775L15.7628 3.7775ZM26.6314 9.9875V13.205C26.6314 13.335 26.5939 13.435 26.5189 13.505C26.4489 13.58 26.3564 13.6175 26.2414 13.6175H25.4239V11H18.9139V3.4025H20.2564V9.9875H23.9014V3.4025H25.2439V9.9875H26.6314ZM34.4988 3.4025V11H33.1638V5.84C33.1638 5.74 33.1688 5.6325 33.1788 5.5175C33.1888 5.4025 33.2013 5.2875 33.2163 5.1725C33.1713 5.2725 33.1263 5.365 33.0813 5.45C33.0363 5.535 32.9888 5.6125 32.9388 5.6825L29.2713 10.67C29.2163 10.75 29.1463 10.8275 29.0613 10.9025C28.9813 10.9725 28.8913 11.0075 28.7913 11.0075H27.9813V3.41H29.3238V8.57C29.3238 8.665 29.3188 8.77 29.3088 8.885C29.2988 8.995 29.2863 9.1075 29.2713 9.2225C29.3163 9.1275 29.3613 9.04 29.4063 8.96C29.4513 8.875 29.4963 8.7975 29.5413 8.7275L33.2088 3.74C33.2638 3.66 33.3338 3.585 33.4188 3.515C33.5038 3.44 33.5963 3.4025 33.6963 3.4025H34.4988ZM43.1268 3.4025V11H41.7918V5.84C41.7918 5.74 41.7968 5.6325 41.8068 5.5175C41.8168 5.4025 41.8293 5.2875 41.8443 5.1725C41.7993 5.2725 41.7543 5.365 41.7093 5.45C41.6643 5.535 41.6168 5.6125 41.5668 5.6825L37.8993 10.67C37.8443 10.75 37.7743 10.8275 37.6893 10.9025C37.6093 10.9725 37.5193 11.0075 37.4193 11.0075H36.6093V3.41H37.9518V8.57C37.9518 8.665 37.9468 8.77 37.9368 8.885C37.9268 8.995 37.9143 9.1075 37.8993 9.2225C37.9443 9.1275 37.9893 9.04 38.0343 8.96C38.0793 8.875 38.1243 8.7975 38.1693 8.7275L41.8368 3.74C41.8918 3.66 41.9618 3.585 42.0468 3.515C42.1318 3.44 42.2243 3.4025 42.3243 3.4025H43.1268ZM56.6576 1.475H53.1776V11H51.7301V1.475H48.2426V0.252499H56.6576V1.475ZM61.4249 5.825C61.8399 5.825 62.2049 5.77 62.5199 5.66C62.8399 5.55 63.1074 5.3975 63.3224 5.2025C63.5424 5.0025 63.7074 4.765 63.8174 4.49C63.9274 4.215 63.9824 3.9125 63.9824 3.5825C63.9824 2.8975 63.7699 2.3625 63.3449 1.9775C62.9249 1.5925 62.2849 1.4 61.4249 1.4H59.6999V5.825H61.4249ZM61.4249 0.252499C62.1049 0.252499 62.6949 0.3325 63.1949 0.4925C63.6999 0.647499 64.1174 0.869999 64.4474 1.16C64.7774 1.45 65.0224 1.8 65.1824 2.21C65.3474 2.62 65.4299 3.0775 65.4299 3.5825C65.4299 4.0825 65.3424 4.54 65.1674 4.955C64.9924 5.37 64.7349 5.7275 64.3949 6.0275C64.0599 6.3275 63.6424 6.5625 63.1424 6.7325C62.6474 6.8975 62.0749 6.98 61.4249 6.98H59.6999V11H58.2524V0.252499H61.4249ZM77.1912 9.86V13.1825C77.1912 13.3125 77.1462 13.4175 77.0562 13.4975C76.9712 13.5775 76.8612 13.6175 76.7262 13.6175H75.8562V11H67.2612V0.252499H68.7162V9.86H74.0862V0.252499H75.5487V9.86H77.1912Z" fill="#1E1E1E"/>
</svg>
