<svg width="248" height="248" viewBox="0 0 248 248" fill="none" xmlns="http://www.w3.org/2000/svg">
    <path d="M54 2C54 0.895431 53.1046 0 52 0H8C3.58173 0 0 3.58171 0 8V45C0 46.1046 0.895432 47 2 47C3.10457 47 4 46.1046 4 45V8C4 5.79086 5.79086 4 8 4H52C53.1046 4 54 3.10457 54 2Z"
          fill="white"/>
    <path d="M246 47C244.895 47 244 46.1046 244 45V8C244 5.79086 242.209 4 240 4H196C194.895 4 194 3.10457 194 2C194 0.895431 194.895 0 196 0H240C244.418 0 248 3.58173 248 8V45C248 46.1046 247.105 47 246 47Z"
          fill="white"/>
    <path d="M194 246C194 244.895 194.895 244 196 244H240C242.209 244 244 242.209 244 240V189C244 187.895 244.895 187 246 187C247.105 187 248 187.895 248 189V240C248 244.418 244.418 248 240 248H196C194.895 248 194 247.105 194 246Z"
          fill="white"/>
    <path d="M2 187C3.10457 187 4 187.895 4 189V240C4 242.209 5.79086 244 8 244H52C53.1046 244 54 244.895 54 246C54 247.105 53.1046 248 52 248H8C3.58171 248 0 244.418 0 240V189C0 187.895 0.895431 187 2 187Z"
          fill="white"/>
</svg>
