<svg width="24" height="24" viewBox="0 0 24 24" fill="none" xmlns="http://www.w3.org/2000/svg">
    <path fill-rule="evenodd" clip-rule="evenodd"
          d="M6.40939 21.3023C6.33986 21.2618 6.25695 21.2509 6.1793 21.2721L1.94427 22.4276C1.72038 22.4887 1.51489 22.2833 1.57583 22.0594L2.72889 17.8224C2.75001 17.7448 2.73908 17.662 2.69855 17.5925L2.62076 17.4592C1.65445 15.8027 1.14677 13.9176 1.14992 11.9999C1.14992 6.00743 6.00745 1.1499 11.9999 1.1499C17.9924 1.1499 22.8499 6.00743 22.8499 11.9999C22.8499 17.9923 17.9913 22.8499 11.9988 22.8499C10.0819 22.853 8.19879 22.3457 6.54284 21.3801L6.40939 21.3023ZM3.76858 17.6848C3.78968 17.6072 3.77876 17.5244 3.73828 17.455L3.45668 16.9718C2.58262 15.4747 2.11693 13.7723 2.11693 11.9999C2.11693 10.0452 2.69656 8.13445 3.78251 6.50921C4.86847 4.88396 6.41198 3.61723 8.21786 2.86921C10.0237 2.1212 12.0109 1.92548 13.928 2.30682C15.8451 2.68815 17.6061 3.62942 18.9882 5.01157C20.3704 6.39373 21.3117 8.15471 21.693 10.0718C22.0743 11.9889 21.8786 13.9761 21.1306 15.7819C20.3826 17.5878 19.1158 19.1313 17.4906 20.2173C15.8654 21.3032 13.9857 21.8828 12.0311 21.8828C9.96339 21.8828 8.55224 21.5138 6.54987 20.269C6.47842 20.2246 6.39114 20.2111 6.30997 20.2333L3.32229 21.0487C3.09842 21.1098 2.89291 20.9045 2.95382 20.6805L3.76858 17.6848Z"
          fill="#B09D35"/>
    <path d="M8.21274 7.05114C8.06507 7.04453 7.9163 7.04453 7.76864 7.05555L7.76754 7.05445C7.62523 7.06329 7.48617 7.10077 7.35869 7.16465C7.26282 7.21314 7.17466 7.28367 7.03471 7.4159C6.92388 7.52114 6.85241 7.61458 6.78437 7.70352C6.7719 7.71982 6.75954 7.73597 6.74708 7.75201C6.33973 8.28281 6.12101 8.93429 6.12556 9.60337C6.13588 10.1427 6.26019 10.6737 6.49032 11.1616C6.93993 12.1556 7.68048 13.208 8.66126 14.1833C8.69849 14.2203 8.73558 14.2574 8.77264 14.2945C8.97028 14.4921 9.16672 14.6885 9.37645 14.8731C10.5924 15.9437 12.0414 16.7157 13.6081 17.1278C13.6081 17.1278 14.2252 17.2237 14.2341 17.2237C14.4098 17.2331 14.5848 17.2231 14.7596 17.2132C14.7886 17.2115 14.8177 17.2098 14.8468 17.2083C15.1676 17.192 15.481 17.1055 15.7647 16.9548C15.9089 16.8802 16.0497 16.7993 16.1868 16.7124C16.2334 16.6803 16.2793 16.6472 16.3246 16.6132C16.4553 16.5188 16.577 16.4126 16.6882 16.2958C16.7826 16.1979 16.8608 16.0856 16.9196 15.963C17.0056 15.7834 17.0915 15.4407 17.1268 15.1552C17.1522 14.937 17.1455 14.818 17.1411 14.7442C17.1378 14.6263 17.0397 14.504 16.9318 14.4522L16.2904 14.1645C16.2904 14.1645 15.3328 13.7469 14.7476 13.4791C14.6859 13.4515 14.6187 13.4394 14.5525 13.435C14.4771 13.4273 14.401 13.4358 14.3291 13.4599C14.2573 13.484 14.1914 13.5233 14.136 13.575V13.5728C14.1294 13.5728 14.0566 13.6356 13.2588 14.602C13.2131 14.6633 13.1503 14.7096 13.0783 14.7351C13.0063 14.7606 12.9284 14.7641 12.8544 14.7453C12.7827 14.7266 12.7122 14.7012 12.6439 14.6726C12.5562 14.6351 12.5053 14.6126 12.4553 14.5905C12.4274 14.5782 12.3997 14.566 12.3662 14.5513L12.3607 14.5491C11.7303 14.2736 11.1463 13.9023 10.6305 13.4471C10.5279 13.3567 10.4307 13.2615 10.3336 13.1664C10.2993 13.1328 10.265 13.0992 10.2305 13.0659C9.76766 12.6162 9.38857 12.1391 9.10646 11.6685L9.04144 11.5638C8.99516 11.4889 8.94447 11.3996 8.92904 11.3379C8.88717 11.1759 8.99626 11.0459 8.99626 11.0459C8.99626 11.0459 9.26405 10.7528 9.38857 10.593C9.49223 10.4614 9.58897 10.3246 9.6784 10.183C9.80843 9.97364 9.84921 9.75875 9.78089 9.59125C9.47233 8.83858 9.15275 8.08812 8.82435 7.34317C8.75933 7.19551 8.56648 7.08861 8.39127 7.06878C8.33176 7.06216 8.27225 7.05555 8.21274 7.05114Z"
          stroke="#B09D35"/>
</svg>
