<svg width="44" height="44" viewBox="0 0 44 44" fill="none" xmlns="http://www.w3.org/2000/svg">
    <path fill-rule="evenodd" clip-rule="evenodd"
          d="M22 44C34.1503 44 44 34.1503 44 22C44 9.84974 34.1503 0 22 0C9.84974 0 0 9.84974 0 22C0 34.1503 9.84974 44 22 44ZM22 40.3333C32.1252 40.3333 40.3333 32.1252 40.3333 22C40.3333 11.8748 32.1252 3.66667 22 3.66667C11.8748 3.66667 3.66667 11.8748 3.66667 22C3.66667 32.1252 11.8748 40.3333 22 40.3333Z"
          fill="url(#paint0_angular_3016_25020)"/>
    <path fill-rule="evenodd" clip-rule="evenodd"
          d="M41.7664 17.6013C42.7706 17.4717 43.6897 18.1807 43.8193 19.1849C43.9397 20.1185 44.0001 21.0587 44.0001 22C44.0001 23.0125 43.1793 23.8333 42.1668 23.8333C41.1543 23.8333 40.3335 23.0125 40.3335 22C40.3335 21.2156 40.2831 20.4321 40.1828 19.6541C40.0532 18.6499 40.7622 17.7308 41.7664 17.6013Z"
          fill="#CCBB61"/>
    <defs>
        <radialGradient id="paint0_angular_3016_25020" cx="0" cy="0" r="1" gradientUnits="userSpaceOnUse"
                        gradientTransform="translate(22 22) scale(22)">
            <stop stop-color="#CCBB61" stop-opacity="0"/>
            <stop offset="0.0001" stop-color="#CCBB61" stop-opacity="0.01"/>
            <stop offset="0.501193" stop-color="#CCBB61" stop-opacity="0.5"/>
            <stop offset="1" stop-color="#CCBB61"/>
        </radialGradient>
    </defs>
</svg>
