<svg width="196" height="50" viewBox="0 0 196 50" fill="none" xmlns="http://www.w3.org/2000/svg">
    <path d="M0.264526 49.069L0.333526 48.103L3.92153 47.62C4.24353 47.574 4.51953 47.275 4.74953 46.723L19.6535 0.699951H24.2075L40.0775 47.689L44.8385 47.965C44.8385 48.011 44.8155 48.356 44.7695 49L30.9695 49.069C30.9695 48.655 30.9925 48.333 31.0385 48.103L34.6265 47.62C34.9945 47.574 35.1785 47.298 35.1785 46.792L31.3835 35.545H9.85553L6.19853 47.551L14.2025 47.965C14.2025 48.011 14.1795 48.356 14.1335 49L0.264526 49.069ZM20.1365 2.01095L10.2695 34.165H30.9005L20.1365 2.01095Z"
          fill="white"/>
    <path d="M60.5565 49.069L60.6255 48.103L64.2135 47.62C64.6735 47.574 64.9495 47.275 65.0415 46.723H65.1105V3.11495H65.0415C64.9495 2.51695 64.6735 2.19495 64.2135 2.14895L60.6255 1.80395L60.5565 0.76895L74.4255 0.699951C74.4255 0.745951 74.4485 1.09095 74.4945 1.73495L69.8025 2.14895V47.689L74.4945 47.965C74.4945 48.011 74.4715 48.356 74.4255 49L60.5565 49.069Z"
          fill="white"/>
    <path d="M92.7525 1.73495L92.8215 0.699951H102.274L129.115 47.068L128.77 3.11495C128.586 2.65495 128.333 2.40195 128.011 2.35595L121.663 1.80395C121.618 1.52795 121.594 1.18295 121.594 0.76895L134.704 0.699951C134.704 0.745951 134.727 1.09095 134.773 1.73495L130.357 2.21795V49H125.32L98.4795 2.63195L98.8245 47.551L106.69 47.965C106.69 48.011 106.667 48.356 106.621 49L92.7525 49.069L92.8215 48.103L96.4095 47.62C96.8695 47.574 97.1455 47.275 97.2375 46.723V3.04595C97.1455 2.49395 96.8695 2.19495 96.4095 2.14895L92.7525 1.73495Z"
          fill="white"/>
    <path d="M150.581 49.069L150.65 48.103L154.238 47.62C154.56 47.574 154.836 47.275 155.066 46.723L169.97 0.699951H174.524L190.394 47.689L195.155 47.965C195.155 48.011 195.132 48.356 195.086 49L181.286 49.069C181.286 48.655 181.309 48.333 181.355 48.103L184.943 47.62C185.311 47.574 185.495 47.298 185.495 46.792L181.7 35.545H160.172L156.515 47.551L164.519 47.965C164.519 48.011 164.496 48.356 164.45 49L150.581 49.069ZM170.453 2.01095L160.586 34.165H181.217L170.453 2.01095Z"
          fill="white"/>
</svg>
