<?xml version="1.0" encoding="UTF-8"?>
<svg width="24" height="24" viewBox="0 0 24 24" fill="none" xmlns="http://www.w3.org/2000/svg">
  <path d="M13 3V4.2C13 5 13.6 5.6 14.4 5.6C15.9 5.6 17.1 6.8 17.1 8.3C17.1 9.8 15.9 11 14.4 11C13.6 11 13 11.6 13 12.4V13.5H3V12.3C3 11.5 3.6 10.9 4.4 10.9C5.9 10.9 7.1 9.7 7.1 8.2C7.1 6.7 5.9 5.5 4.4 5.5C3.6 5.5 3 4.9 3 4.1V3H13ZM14 2H2V4.2C2 4.6 2.3 5 2.8 5C3.8 5 4.1 5.2 4.1 5.2C5.1 5.6 5.9 6.8 5.9 8.2C5.9 9.6 5 10.8 4.1 11.2C4.1 11.2 3.8 11.4 2.8 11.4C2.3 11.4 2 11.7 2 12.2V14.5H14V12.3C14 11.9 13.7 11.5 13.2 11.5C12.2 11.5 11.9 11.3 11.9 11.3C10.9 10.9 10.1 9.7 10.1 8.3C10.1 6.9 11 5.7 11.9 5.3C11.9 5.3 12.2 5.1 13.2 5.1C13.7 5.1 14 4.8 14 4.3V2Z" fill="currentColor"/>
</svg> 